<?xml version="1.0" encoding="UTF-8" standalone="no"?>
<!-- Created with Inkscape (http://www.inkscape.org/) -->
<svg id="svg2" xmlns:rdf="http://www.w3.org/1999/02/22-rdf-syntax-ns#" xmlns="http://www.w3.org/2000/svg" height="500mm" width="500mm" version="1.1" xmlns:cc="http://creativecommons.org/ns#" xmlns:dc="http://purl.org/dc/elements/1.1/" viewBox="0 0 1771.6535 1771.6535">
 <metadata id="metadata7">
  <rdf:RDF>
   <cc:Work rdf:about="">
    <dc:format>image/svg+xml</dc:format>
    <dc:type rdf:resource="http://purl.org/dc/dcmitype/StillImage"/>
    <dc:title/>
   </cc:Work>
  </rdf:RDF>
 </metadata>
 <g id="layer1" transform="translate(0 719.29)">
  <path id="path4805" fill="#5d94ff" d="m906.15 996.96a825.73 825.73 0 0 1 -846.13 -787.85 825.73 825.73 0 0 1 770.94 -861.56 825.73 825.73 0 0 1 876.64 753.72 825.73 825.73 0 0 1 -736.18 891.42"/>
  <path id="path5592" opacity="0.909" fill="#fff" d="m650.76 558.88c-50.06-25.67-48.31-12.23-48.31-371.21s-1.7493-345.54 48.308-371.21c25.936-13.299 30.058-13.526 246.26-13.526s220.32 0.22636 246.26 13.526c50.057 25.668 48.308 12.226 48.308 371.21s1.7493 345.54-48.308 371.21c-25.936 13.3-30.058 13.526-246.26 13.526s-220.32-0.22633-246.26-13.526zm118.81-53.803c10.667-10.667 9.1023-62.177-2.2328-73.512-12.38-12.38-79.553-13.019-96.108-0.91399-14.074 10.291-16.264 56.221-3.4186 71.699 10.109 12.181 90.161 14.326 101.76 2.7274zm181.34-4.414c3.4226-6.3953 6.223-22.473 6.223-35.728 0-31.837-15.415-42.817-60.115-42.817s-60.115 10.979-60.115 42.817c0 42.736 5.8645 47.356 60.115 47.356 40.976 0 48.543-1.6325 53.892-11.628zm175.31 1.6866c12.846-15.478 10.656-61.407-3.4187-71.699-16.555-12.105-83.728-11.466-96.108 0.91399-11.335 11.335-12.9 62.845-2.2329 73.512 11.599 11.599 91.651 9.4534 101.76-2.7274zm-355.17-146.58c8.0418-12.715 7.0171-62.239-1.4633-70.719-4.289-4.289-24.95-7.2138-50.959-7.2138-40.118 0-44.568 1.2559-53.669 15.145-12.165 18.566-7.7374 56.143 8.0062 67.954 14.665 11.002 90.381 7.0133 98.085-5.1665zm172.73 2.8813c10.029-7.0242 13.361-15.369 13.361-33.458 0-42.736-5.8645-47.356-60.115-47.356s-60.115 4.6198-60.115 47.356c0 31.837 15.415 42.817 60.115 42.817 20.495 0 38.555-3.6148 46.754-9.3581zm177.66 1.824c15.426-11.28 19.712-49.087 7.6523-67.493-9.1006-13.889-13.551-15.145-53.669-15.145-26.009 0-46.67 2.9248-50.959 7.2138-7.8488 7.8488-9.7549 57.838-2.6132 68.531 2.4292 3.6371 8.4744 8.1576 13.434 10.046 17.108 6.5122 75.879 4.3619 86.155-3.1524zm-351.83-149.97c9.36-9.36 9.36-66.385 0-75.745-4.2707-4.2707-24.818-7.2138-50.362-7.2138-50.685 0-59.649 6.7756-59.649 45.086 0 38.311 8.9641 45.086 59.649 45.086 25.544 0 46.091-2.9431 50.362-7.2138zm178.11-2.2328c12.639-12.639 12.33-55.553-0.50232-69.732-7.6994-8.5077-18.806-10.993-49.121-10.993-48.966 0-61.159 9.0889-61.159 45.588 0 36.952 10.29 44.584 60.115 44.584 29.459 0 43.917-2.6956 50.668-9.4466zm178.54-0.49457c4.5377-5.4676 8.2504-21.283 8.2504-35.145 0-38.311-8.9641-45.086-59.649-45.086-25.544 0-46.091 2.9431-50.362 7.2138-9.3601 9.36-9.3601 66.385 0 75.745 11.599 11.599 91.651 9.4534 101.76-2.7274zm2.5843-155.06c12.646-19.299 10.566-163.95-2.5843-179.76-7.3932-8.8887-31.21-9.9194-229.2-9.9194s-221.81 1.0307-229.2 9.9195c-13.15 15.81-15.23 160.46-2.5844 179.76l9.6398 14.712h222.15 222.15l9.6398-14.712zm-134.4-22.56c-11.47-11.47-9.6458-115.74 2.2328-127.62 11.619-11.619 86.458-13.332 97.558-2.2328 9.8256 9.8256 9.8256 120.02 0 129.85-4.256 4.256-24.714 7.2138-49.895 7.2138-25.182 0-45.639-2.9578-49.895-7.2138zm81.719-63.421 1.7663-43.583h-30.321-30.321v45.416 45.416l28.555-1.8322 28.555-1.8322 1.7662-43.583z"/>
 </g>
</svg>
