<?xml version="1.0" encoding="UTF-8" standalone="no"?>
<svg
   xmlns:dc="http://purl.org/dc/elements/1.1/"
   xmlns:cc="http://creativecommons.org/ns#"
   xmlns:rdf="http://www.w3.org/1999/02/22-rdf-syntax-ns#"
   xmlns:svg="http://www.w3.org/2000/svg"
   xmlns="http://www.w3.org/2000/svg"
   viewBox="0 0 1771.6535 1771.6535"
   version="1.1"
   width="500mm"
   height="500mm"
   id="svg2">
  <defs
     id="defs4178" />
  <metadata
     id="metadata7">
    <rdf:RDF>
      <cc:Work
         rdf:about="">
        <dc:format>image/svg+xml</dc:format>
        <dc:type
           rdf:resource="http://purl.org/dc/dcmitype/StillImage" />
        <dc:title></dc:title>
      </cc:Work>
    </rdf:RDF>
  </metadata>
  <g
     transform="translate(0 719.29)"
     id="layer1">
    <path
       fill="#ff001c"
       d="m906.15 996.96a825.73 825.73 0 0 1 -846.13 -787.85 825.73 825.73 0 0 1 770.94 -861.56 825.73 825.73 0 0 1 876.64 753.72 825.73 825.73 0 0 1 -736.18 891.42"
       id="path4805" />
  </g>
  <path
     id="path4347"
     d="m 535.39486,1159.2753 c -7.73603,-7.7361 -8.72937,-34.6291 -8.72937,-236.33183 0,-258.51859 -2.48001,-244.69198 43.88919,-244.69198 l 26.79961,0 0,-26.1487 c 0,-42.11394 6.98684,-47.29502 63.45346,-47.05356 78.4971,0.33567 141.73092,21.50758 189.30323,63.38236 l 24.5608,21.61936 24.56099,-21.61936 c 47.57216,-41.87478 110.80593,-63.04669 189.30303,-63.38236 56.4667,-0.24146 63.4535,4.93962 63.4535,47.05356 l 0,26.1487 26.7996,0 c 46.3667,0 43.9005,-13.72078 43.8059,243.72098 -0.043,124.64723 -2.173,229.92893 -4.7272,233.95933 -6.4434,10.1673 -22.1337,9.3293 -84.9099,-4.534 -70.0383,-15.4673 -177.11327,-13.3863 -226.84911,4.4087 l -31.09556,11.1258 -31.43681,-11.7431 c -27.55609,-10.2934 -42.51222,-11.7394 -121.15715,-11.7144 -86.5222,0.027 -100.93743,1.8929 -169.35201,21.9129 -4.91855,1.4393 -12.87105,-1.3113 -17.6722,-6.1124 z m 188.14211,-64.659 74.52552,-0.3885 -18.54935,-9.5222 c -31.27053,-16.0525 -78.94779,-25.8221 -126.01517,-25.8221 -38.8122,0 -45.64753,-1.4232 -50.51477,-10.5177 -3.50332,-6.5461 -5.62891,-69.17317 -5.62891,-165.84685 0,-151.704 -0.25381,-155.32907 -10.87521,-155.32907 -10.66998,0 -10.87519,3.62507 -10.87519,192.10878 l 0,192.10874 36.70378,-8.2014 c 22.23242,-4.9678 66.08735,-8.3545 111.2293,-8.5897 z M 1173.7397,920.22467 c 0,-189.40972 -0.2044,-193.03479 -10.8751,-193.03479 -10.6215,0 -10.8753,3.62507 -10.8753,155.32907 0,96.67368 -2.1256,159.30075 -5.6289,165.84685 -4.8673,9.0945 -11.7026,10.5177 -50.5147,10.5177 -47.072,0 -94.7592,9.7727 -126.00254,25.8221 -18.5354,9.5216 -18.53095,9.5223 58.69474,10.343 62.0987,0.6598 126.5421,8.5017 143.8424,17.5035 0.7476,0.3891 1.3594,-86.1583 1.3594,-192.32743 z M 838.46764,723.82712 C 807.19793,682.83045 753.48617,657.76213 685.71526,652.53464 l -39.42258,-3.04084 0,179.79284 0,179.79286 36.70378,3.5 c 49.90063,4.7583 101.37854,20.5344 137.29936,42.0773 l 29.90681,17.936 1.43836,-164.80435 1.43837,-164.80433 -14.61172,-19.157 z M 991.5802,1026.7048 c 17.944,-5.5182 50.3658,-11.7951 72.0481,-13.9483 l 39.4226,-3.9151 0,-178.88898 0,-178.88891 -24.2015,0 c -62.0649,0 -131.74653,28.99139 -163.85144,68.17116 l -18.5757,22.66929 0,166.24944 0,166.2494 31.26618,-18.8323 c 17.19641,-10.3578 45.9477,-23.3474 63.89176,-28.8657 z"
     style="opacity:0.8;fill:#ffffff" />
  <path
     id="path4357"
     d="M 434.03676,712.81735 218.20611,902.42558 425.96832,1094.0509"
     style="opacity:0.8;fill:none;fill-rule:evenodd;stroke:#ffffff;stroke-width:64.99999225;stroke-linecap:round;stroke-linejoin:round;stroke-miterlimit:4;stroke-dasharray:none;stroke-opacity:1" />
  <path
     id="path4357-3"
     d="m 1322.4624,710.18364 215.8307,189.60821 -207.7622,191.62535"
     style="opacity:0.8;fill:none;fill-rule:evenodd;stroke:#ffffff;stroke-width:64.99999225;stroke-linecap:round;stroke-linejoin:round;stroke-miterlimit:4;stroke-dasharray:none;stroke-opacity:1" />
</svg>
