<?xml version="1.0" encoding="UTF-8" standalone="no"?>
<svg
   xmlns:dc="http://purl.org/dc/elements/1.1/"
   xmlns:cc="http://creativecommons.org/ns#"
   xmlns:rdf="http://www.w3.org/1999/02/22-rdf-syntax-ns#"
   xmlns:svg="http://www.w3.org/2000/svg"
   xmlns="http://www.w3.org/2000/svg"
   version="1.1"
   id="svg2"
   height="1000"
   width="1000">
  <metadata
     id="metadata351">
    <rdf:RDF>
      <cc:Work
         rdf:about="">
        <dc:format>image/svg+xml</dc:format>
        <dc:type
           rdf:resource="http://purl.org/dc/dcmitype/StillImage" />
        <dc:title></dc:title>
      </cc:Work>
    </rdf:RDF>
  </metadata>
  <desc
     id="desc4">/home/andiroid/Desktop/img/circles/andiroid-robokraken.dxf - scale = 1.000000, origin = (0.000000, 0.000000), auto = True</desc>
  <defs
     id="defs6">
    <marker
       style="overflow:visible"
       refY="0"
       refX="0"
       orient="auto"
       id="DistanceX">
      <path
         id="path9"
         style="stroke:#000000;stroke-width:0.5"
         d="M 3,-3 -3,3 M 0,-5 0,5" />
    </marker>
    <pattern
       y="0"
       x="0"
       width="8"
       patternUnits="userSpaceOnUse"
       id="Hatch"
       height="8">
      <path
         id="path12"
         stroke-width="0.25"
         stroke="#000000"
         linecap="square"
         d="M8 4 l-4,4" />
      <path
         id="path14"
         stroke-width="0.25"
         stroke="#000000"
         linecap="square"
         d="M6 2 l-4,4" />
      <path
         id="path16"
         stroke-width="0.25"
         stroke="#000000"
         linecap="square"
         d="M4 0 l-4,4" />
    </pattern>
    <symbol
       id="*Model_Space" />
    <symbol
       id="*Paper_Space" />
    <symbol
       id="*Paper_Space0" />
  </defs>
  <g
     transform="translate(0,-52.362183)"
     id="g21">
    <path
       id="path23"
       style="fill:none;stroke:#000000;stroke-width:1.61139405;stroke-linecap:round"
       d="m 374.82445,473.6816 102.43984,0.079" />
    <path
       id="path25"
       style="fill:none;stroke:#000000;stroke-width:1.61139405;stroke-linecap:round"
       d="m 625.02457,473.6107 -102.43983,0.079" />
    <path
       id="path27"
       style="fill:none;stroke:#000000;stroke-width:1.61139405;stroke-linecap:round"
       d="m 477.26429,473.76024 0,-8.8124" />
    <path
       id="path29"
       style="fill:none;stroke:#000000;stroke-width:1.61139405;stroke-linecap:round"
       d="m 477.26429,464.94784 0,-8.81223" />
    <path
       id="path31"
       style="fill:none;stroke:#000000;stroke-width:1.61139405;stroke-linecap:round"
       d="m 477.26429,456.13561 -80.56971,0" />
    <path
       id="path33"
       style="fill:none;stroke:#000000;stroke-width:1.61139405;stroke-linecap:round"
       d="m 396.69458,456.13561 -80.5697,0" />
    <path
       id="path35"
       style="fill:none;stroke:#000000;stroke-width:1.61139405;stroke-linecap:round"
       d="m 316.12488,456.13561 0,-98.19439" />
    <path
       id="path37"
       style="fill:none;stroke:#000000;stroke-width:1.61139405;stroke-linecap:round"
       d="m 316.12488,357.94122 0,-98.19432" />
    <path
       id="path39"
       style="fill:none;stroke:#000000;stroke-width:1.61139405;stroke-linecap:round"
       d="m 316.12488,259.7469 183.79963,0" />
    <path
       id="path41"
       style="fill:none;stroke:#000000;stroke-width:1.61139405;stroke-linecap:round"
       d="m 499.92451,259.7469 183.79964,0" />
    <path
       id="path43"
       style="fill:none;stroke:#000000;stroke-width:1.61139405;stroke-linecap:round"
       d="m 683.72415,259.7469 0,98.19432" />
    <path
       id="path45"
       style="fill:none;stroke:#000000;stroke-width:1.61139405;stroke-linecap:round"
       d="m 683.72415,357.94122 0,98.19439" />
    <path
       id="path47"
       style="fill:none;stroke:#000000;stroke-width:1.61139405;stroke-linecap:round"
       d="m 683.72415,456.13561 -80.56971,0" />
    <path
       id="path49"
       style="fill:none;stroke:#000000;stroke-width:1.61139405;stroke-linecap:round"
       d="m 603.15444,456.13561 -80.5697,0" />
    <path
       id="path51"
       style="fill:none;stroke:#000000;stroke-width:1.61139405;stroke-linecap:round"
       d="m 522.58474,456.13561 0,8.77678" />
    <path
       id="path53"
       style="fill:none;stroke:#000000;stroke-width:1.61139405;stroke-linecap:round"
       d="m 522.58474,464.91239 0,8.77694" />
    <path
       id="path55"
       style="fill:none;stroke:#000000;stroke-width:1.61139405;stroke-linecap:round"
       d="m 586.12497,516.62251 -172.40051,0.0693" />
    <path
       id="path57"
       style="fill:none;stroke:#000000;stroke-width:1.61139405;stroke-linecap:round"
       d="M 361.46411,529.07971 175.02879,653.79468" />
    <path
       id="path59"
       style="fill:none;stroke:#000000;stroke-width:1.61139405;stroke-linecap:round"
       d="M 374.82445,473.6816 186.44811,465.37583" />
    <path
       id="path61"
       style="fill:none;stroke:#000000;stroke-width:1.61139405;stroke-linecap:round"
       d="M 186.44811,465.37583 102.23115,416.91509" />
    <path
       id="path63"
       style="fill:none;stroke:#000000;stroke-width:1.61139405;stroke-linecap:round"
       d="M 625.02457,473.6107 807.23714,458.89593" />
    <path
       id="path65"
       style="fill:none;stroke:#000000;stroke-width:1.61139405;stroke-linecap:round"
       d="m 807.23714,458.89593 90.38073,-42.05174" />
    <path
       id="path67"
       style="fill:none;stroke:#000000;stroke-width:1.61139405;stroke-linecap:round"
       d="M 638.38492,529.00881 824.82026,653.72378" />
    <path
       id="path69"
       style="fill:none;stroke:#000000;stroke-width:1.61139405;stroke-linecap:round"
       d="M 413.72446,516.6918 362.33747,722.23977" />
    <path
       id="path71"
       style="fill:none;stroke:#000000;stroke-width:1.61139405;stroke-linecap:round"
       d="m 586.12459,516.6209 51.38697,205.54797" />
    <path
       id="path73"
       style="fill:none;stroke:#000000;stroke-width:1.61139405;stroke-linecap:round"
       d="m 362.33747,722.23977 28.54833,0" />
    <path
       id="path75"
       style="fill:none;stroke:#000000;stroke-width:1.61139405;stroke-linecap:round"
       d="m 637.51156,722.16887 -28.54833,0" />
    <path
       id="path77"
       style="fill:none;stroke:#000000;stroke-width:1.61139405;stroke-linecap:round"
       d="m 390.8858,722.23977 25.25404,-24.92649" />
    <path
       id="path79"
       style="fill:none;stroke:#000000;stroke-width:1.61139405;stroke-linecap:round"
       d="M 608.96323,722.16887 583.70919,697.24238" />
    <path
       id="path81"
       style="fill:none;stroke:#000000;stroke-width:1.61139405;stroke-linecap:round"
       d="m 175.02879,653.79468 22.83864,85.64495" />
    <path
       id="path83"
       style="fill:none;stroke:#000000;stroke-width:1.61139405;stroke-linecap:round"
       d="m 102.23115,416.91509 7.6196,-88.30966" />
    <path
       id="path85"
       style="fill:none;stroke:#000000;stroke-width:1.61139405;stroke-linecap:round"
       d="m 897.61787,416.84419 -7.61959,-88.30967" />
    <path
       id="path87"
       style="fill:none;stroke:#000000;stroke-width:1.61139405;stroke-linecap:round"
       d="M 824.82026,653.72378 801.9816,739.36873" />
    <path
       id="path89"
       style="fill:none;stroke:#000000;stroke-width:1.61139405;stroke-linecap:round"
       d="m 416.13984,697.31328 23.31889,-23.22212" />
    <path
       id="path91"
       style="fill:none;stroke:#000000;stroke-width:1.61139405;stroke-linecap:round"
       d="M 583.70919,697.24238 560.3903,674.02026" />
    <path
       id="path93"
       style="fill:none;stroke:#000000;stroke-width:1.61139405;stroke-linecap:round"
       d="M 439.45873,674.09116 428.16749,662.62754" />
    <path
       id="path95"
       style="fill:none;stroke:#000000;stroke-width:1.61139405;stroke-linecap:round"
       d="m 560.3903,674.02026 11.29125,-11.46362" />
    <path
       id="path97"
       style="fill:none;stroke:#000000;stroke-width:1.61139405;stroke-linecap:round"
       d="m 197.86743,739.43963 34.93209,-34.53104" />
    <path
       id="path99"
       style="fill:none;stroke:#000000;stroke-width:1.61139405;stroke-linecap:round"
       d="M 70.164374,300.81673 27.697615,270.73498" />
    <path
       id="path101"
       style="fill:none;stroke:#000000;stroke-width:1.61139405;stroke-linecap:round"
       d="m 109.85075,328.60543 40.39762,27.94052" />
    <path
       id="path103"
       style="fill:none;stroke:#000000;stroke-width:1.61139405;stroke-linecap:round"
       d="M 163.60944,773.69771 127.01149,810.6966" />
    <path
       id="path105"
       style="fill:none;stroke:#000000;stroke-width:1.61139405;stroke-linecap:round"
       d="M 929.68464,300.74582 972.1514,270.66408" />
    <path
       id="path107"
       style="fill:none;stroke:#000000;stroke-width:1.61139405;stroke-linecap:round"
       d="m 889.99828,328.53452 -40.39764,27.94053" />
    <path
       id="path109"
       style="fill:none;stroke:#000000;stroke-width:1.61139405;stroke-linecap:round"
       d="m 836.23958,773.62681 36.59796,36.99889" />
    <path
       id="path111"
       style="fill:none;stroke:#000000;stroke-width:1.61139405;stroke-linecap:round"
       d="M 801.9816,739.36873 767.04952,704.83768" />
    <path
       id="path113"
       style="fill:none;stroke:#000000;stroke-width:1.61139405;stroke-linecap:round"
       d="M 428.16749,662.62754 416.87625,651.16376" />
    <path
       id="path115"
       style="fill:none;stroke:#000000;stroke-width:1.61139405;stroke-linecap:round"
       d="m 571.68155,662.55664 11.29123,-11.46378" />
    <path
       id="path117"
       style="fill:none;stroke:#000000;stroke-width:1.61139405;stroke-linecap:round"
       d="M 27.697615,270.73498 49.131783,240.23556" />
    <path
       id="path119"
       style="fill:none;stroke:#000000;stroke-width:1.61139405;stroke-linecap:round"
       d="M 150.24837,356.54595 171.57755,325.973" />
    <path
       id="path121"
       style="fill:none;stroke:#000000;stroke-width:1.61139405;stroke-linecap:round"
       d="m 127.01149,810.6966 26.40471,26.31407" />
    <path
       id="path123"
       style="fill:none;stroke:#000000;stroke-width:1.61139405;stroke-linecap:round"
       d="m 232.79952,704.90859 26.31406,26.40478" />
    <path
       id="path125"
       style="fill:none;stroke:#000000;stroke-width:1.61139405;stroke-linecap:round"
       d="M 972.1514,270.66408 950.71723,240.16466" />
    <path
       id="path127"
       style="fill:none;stroke:#000000;stroke-width:1.61139405;stroke-linecap:round"
       d="M 849.60064,356.47505 828.27148,325.9021" />
    <path
       id="path129"
       style="fill:none;stroke:#000000;stroke-width:1.61139405;stroke-linecap:round"
       d="m 872.83754,810.6257 -26.4047,26.31407" />
    <path
       id="path131"
       style="fill:none;stroke:#000000;stroke-width:1.61139405;stroke-linecap:round"
       d="m 767.04952,704.83768 -26.31406,26.40479" />
    <path
       id="path133"
       style="fill:none;stroke:#000000;stroke-width:1.61139405;stroke-linecap:round"
       d="m 416.87625,651.16376 26.4047,-26.31406" />
    <path
       id="path135"
       style="fill:none;stroke:#000000;stroke-width:1.61139405;stroke-linecap:round"
       d="M 582.97278,651.09286 556.56808,624.7788" />
    <path
       id="path137"
       style="fill:none;stroke:#000000;stroke-width:1.61139405;stroke-linecap:round"
       d="m 153.4162,837.01067 26.40471,26.31406" />
    <path
       id="path139"
       style="fill:none;stroke:#000000;stroke-width:1.61139405;stroke-linecap:round"
       d="M 259.11358,731.31337 285.42765,757.718" />
    <path
       id="path141"
       style="fill:none;stroke:#000000;stroke-width:1.61139405;stroke-linecap:round"
       d="m 171.57755,325.973 21.32917,-30.57296" />
    <path
       id="path143"
       style="fill:none;stroke:#000000;stroke-width:1.61139405;stroke-linecap:round"
       d="M 49.131783,240.23556 70.56595,209.73612" />
    <path
       id="path145"
       style="fill:none;stroke:#000000;stroke-width:1.61139405;stroke-linecap:round"
       d="M 828.27148,325.9021 806.94231,295.32914" />
    <path
       id="path147"
       style="fill:none;stroke:#000000;stroke-width:1.61139405;stroke-linecap:round"
       d="M 950.71723,240.16466 929.28306,209.66522" />
    <path
       id="path149"
       style="fill:none;stroke:#000000;stroke-width:1.61139405;stroke-linecap:round"
       d="m 846.43284,836.93977 -26.40471,26.31406" />
    <path
       id="path151"
       style="fill:none;stroke:#000000;stroke-width:1.61139405;stroke-linecap:round"
       d="M 740.73546,731.24247 714.4214,757.6471" />
    <path
       id="path153"
       style="fill:none;stroke:#000000;stroke-width:1.61139405;stroke-linecap:round"
       d="m 443.28095,624.8497 26.40471,-26.31407" />
    <path
       id="path155"
       style="fill:none;stroke:#000000;stroke-width:1.61139405;stroke-linecap:round"
       d="M 556.56808,624.7788 530.16337,598.46473" />
    <path
       id="path157"
       style="fill:none;stroke:#000000;stroke-width:1.61139405;stroke-linecap:round"
       d="m 192.90672,295.40004 -13.00503,-9.10621" />
    <path
       id="path159"
       style="fill:none;stroke:#000000;stroke-width:1.61139405;stroke-linecap:round"
       d="m 70.56595,209.73612 13.005046,9.10623" />
    <path
       id="path161"
       style="fill:none;stroke:#000000;stroke-width:1.61139405;stroke-linecap:round"
       d="m 179.82091,863.32473 11.22618,-11.2261" />
    <path
       id="path163"
       style="fill:none;stroke:#000000;stroke-width:1.61139405;stroke-linecap:round"
       d="m 285.42765,757.718 -11.22618,11.22626" />
    <path
       id="path165"
       style="fill:none;stroke:#000000;stroke-width:1.61139405;stroke-linecap:round"
       d="m 806.94231,295.32914 13.00504,-9.10621" />
    <path
       id="path167"
       style="fill:none;stroke:#000000;stroke-width:1.61139405;stroke-linecap:round"
       d="m 929.28306,209.66522 -13.00502,9.10623" />
    <path
       id="path169"
       style="fill:none;stroke:#000000;stroke-width:1.61139405;stroke-linecap:round"
       d="m 820.02813,863.25383 -11.22618,-11.2261" />
    <path
       id="path171"
       style="fill:none;stroke:#000000;stroke-width:1.61139405;stroke-linecap:round"
       d="m 714.4214,757.6471 11.22617,11.22626" />
    <path
       id="path173"
       style="fill:none;stroke:#000000;stroke-width:1.61139405;stroke-linecap:round"
       d="m 469.68566,598.53563 11.22618,11.22626" />
    <path
       id="path175"
       style="fill:none;stroke:#000000;stroke-width:1.61139405;stroke-linecap:round"
       d="m 530.16337,598.46473 -11.22618,11.22626" />
    <path
       id="path177"
       style="fill:none;stroke:#000000;stroke-width:1.61139405;stroke-linecap:round"
       d="m 179.90169,286.29383 -15.88874,22.55015" />
    <path
       id="path179"
       style="fill:none;stroke:#000000;stroke-width:1.61139405;stroke-linecap:round"
       d="M 83.570996,218.84235 67.815042,241.48547" />
    <path
       id="path181"
       style="fill:none;stroke:#000000;stroke-width:1.61139405;stroke-linecap:round"
       d="M 191.04709,852.09863 171.59856,832.53551" />
    <path
       id="path183"
       style="fill:none;stroke:#000000;stroke-width:1.61139405;stroke-linecap:round"
       d="M 274.20147,768.94426 254.63834,749.4957" />
    <path
       id="path185"
       style="fill:none;stroke:#000000;stroke-width:1.61139405;stroke-linecap:round"
       d="m 819.94735,286.22293 15.88872,22.55015" />
    <path
       id="path187"
       style="fill:none;stroke:#000000;stroke-width:1.61139405;stroke-linecap:round"
       d="m 916.27804,218.77145 15.75593,22.64312" />
    <path
       id="path189"
       style="fill:none;stroke:#000000;stroke-width:1.61139405;stroke-linecap:round"
       d="M 808.80195,852.02773 828.25046,832.4646" />
    <path
       id="path191"
       style="fill:none;stroke:#000000;stroke-width:1.61139405;stroke-linecap:round"
       d="M 725.64757,768.87336 745.2107,749.4248" />
    <path
       id="path193"
       style="fill:none;stroke:#000000;stroke-width:1.61139405;stroke-linecap:round"
       d="m 480.91184,609.76189 -19.44851,19.56313" />
    <path
       id="path195"
       style="fill:none;stroke:#000000;stroke-width:1.61139405;stroke-linecap:round"
       d="m 518.93719,609.69099 19.44853,19.56313" />
    <path
       id="path197"
       style="fill:none;stroke:#000000;stroke-width:1.61139405;stroke-linecap:round"
       d="m 164.01295,308.84398 c -8.73537,12.4009 -16.95704,22.72728 -18.26625,22.95813" />
    <path
       id="path199"
       style="fill:none;stroke:#000000;stroke-width:1.61139405;stroke-linecap:round"
       d="m 67.815042,241.48547 c -8.665368,12.44994 -15.55701,23.7076 -15.326162,25.01681" />
    <path
       id="path201"
       style="fill:none;stroke:#000000;stroke-width:1.61139405;stroke-linecap:round"
       d="M 171.59856,832.53551 C 160.90293,821.77945 152.16112,811.88952 152.16112,810.56012" />
    <path
       id="path203"
       style="fill:none;stroke:#000000;stroke-width:1.61139405;stroke-linecap:round"
       d="M 254.63834,749.4957 C 243.88228,738.80007 233.99235,730.05826 232.66295,730.05826" />
    <path
       id="path205"
       style="fill:none;stroke:#000000;stroke-width:1.61139405;stroke-linecap:round"
       d="m 835.83607,308.77308 c 8.73537,12.4009 16.95705,22.72728 18.26625,22.95813" />
    <path
       id="path207"
       style="fill:none;stroke:#000000;stroke-width:1.61139405;stroke-linecap:round"
       d="m 932.03397,241.41457 c 8.66537,12.44994 15.55701,23.7076 15.32616,25.01681" />
    <path
       id="path209"
       style="fill:none;stroke:#000000;stroke-width:1.61139405;stroke-linecap:round"
       d="m 828.25046,832.4646 c 10.69563,-10.75605 19.43744,-20.64598 19.43744,-21.97538" />
    <path
       id="path211"
       style="fill:none;stroke:#000000;stroke-width:1.61139405;stroke-linecap:round"
       d="m 745.2107,749.4248 c 10.75606,-10.69563 20.64599,-19.43744 21.97539,-19.43744" />
    <path
       id="path213"
       style="fill:none;stroke:#000000;stroke-width:1.61139405;stroke-linecap:round"
       d="m 461.46333,629.32502 c -10.69563,10.75606 -19.43744,20.64599 -19.43744,21.97539" />
    <path
       id="path215"
       style="fill:none;stroke:#000000;stroke-width:1.61139405;stroke-linecap:round"
       d="m 538.38572,629.25412 c 10.69563,10.75605 19.43744,20.64599 19.43744,21.97539" />
    <path
       id="path217"
       style="fill:none;stroke:#000000;stroke-width:1.61139405;stroke-linecap:round"
       d="m 145.7467,331.80211 c -1.30339,0.22982 -12.56884,-6.67886 -25.03374,-15.35262" />
    <path
       id="path219"
       style="fill:none;stroke:#000000;stroke-width:1.61139405;stroke-linecap:round"
       d="m 52.48888,266.50228 c 0.229834,1.3034 10.57487,9.52655 22.988792,18.27313" />
    <path
       id="path221"
       style="fill:none;stroke:#000000;stroke-width:1.61139405;stroke-linecap:round"
       d="m 152.16112,810.56012 c 0,-1.3236 8.75994,-11.2182 19.46645,-21.98747" />
    <path
       id="path223"
       style="fill:none;stroke:#000000;stroke-width:1.61139405;stroke-linecap:round"
       d="m 232.66295,730.05826 c -1.3235,0 -11.21812,8.76002 -21.98747,19.46644" />
    <path
       id="path225"
       style="fill:none;stroke:#000000;stroke-width:1.61139405;stroke-linecap:round"
       d="m 854.10232,331.73121 c 1.30339,0.22981 12.56885,-6.67886 25.03374,-15.35262" />
    <path
       id="path227"
       style="fill:none;stroke:#000000;stroke-width:1.61139405;stroke-linecap:round"
       d="m 947.36013,266.43138 c -0.22981,1.30339 -10.57485,9.52655 -22.98879,18.27313" />
    <path
       id="path229"
       style="fill:none;stroke:#000000;stroke-width:1.61139405;stroke-linecap:round"
       d="m 847.6879,810.48922 c 0,-1.3236 -8.75994,-11.2182 -19.46644,-21.98747" />
    <path
       id="path231"
       style="fill:none;stroke:#000000;stroke-width:1.61139405;stroke-linecap:round"
       d="m 767.18609,729.98736 c 1.32349,0 11.21812,8.76002 21.98747,19.46644" />
    <path
       id="path233"
       style="fill:none;stroke:#000000;stroke-width:1.61139405;stroke-linecap:round"
       d="m 442.02589,651.30041 c 0,1.32344 8.75994,11.21804 19.46644,21.98747" />
    <path
       id="path235"
       style="fill:none;stroke:#000000;stroke-width:1.61139405;stroke-linecap:round"
       d="m 557.82316,651.22951 c 0,1.32343 -8.75994,11.21804 -19.46645,21.98747" />
    <path
       id="path237"
       style="fill:none;stroke:#000000;stroke-width:1.61139405;stroke-linecap:round"
       d="M 120.71296,316.44949 98.048662,300.67906" />
    <path
       id="path239"
       style="fill:none;stroke:#000000;stroke-width:1.61139405;stroke-linecap:round"
       d="m 75.477672,284.77541 22.57099,15.90365" />
    <path
       id="path241"
       style="fill:none;stroke:#000000;stroke-width:1.61139405;stroke-linecap:round"
       d="m 171.62757,788.57265 19.46644,-19.5815" />
    <path
       id="path243"
       style="fill:none;stroke:#000000;stroke-width:1.61139405;stroke-linecap:round"
       d="m 210.67548,749.5247 -19.58147,19.46645" />
    <path
       id="path245"
       style="fill:none;stroke:#000000;stroke-width:1.61139405;stroke-linecap:round"
       d="m 879.13606,316.37859 22.66429,-15.77043" />
    <path
       id="path247"
       style="fill:none;stroke:#000000;stroke-width:1.61139405;stroke-linecap:round"
       d="m 924.37134,284.70451 -22.57099,15.90365" />
    <path
       id="path249"
       style="fill:none;stroke:#000000;stroke-width:1.61139405;stroke-linecap:round"
       d="m 828.22146,788.50175 -19.46645,-19.5815" />
    <path
       id="path251"
       style="fill:none;stroke:#000000;stroke-width:1.61139405;stroke-linecap:round"
       d="m 789.17356,749.4538 19.58145,19.46645" />
    <path
       id="path253"
       style="fill:none;stroke:#000000;stroke-width:1.61139405;stroke-linecap:round"
       d="m 461.49233,673.28788 19.46645,19.5815" />
    <path
       id="path255"
       style="fill:none;stroke:#000000;stroke-width:1.61139405;stroke-linecap:round"
       d="m 538.35671,673.21698 -19.46644,19.5815" />
    <path
       id="path257"
       style="fill:none;stroke:#000000;stroke-width:1.61139405;stroke-linecap:round"
       d="m 480.95878,692.86938 -35.15055,35.2291" />
    <path
       id="path259"
       style="fill:none;stroke:#000000;stroke-width:1.61139405;stroke-linecap:round"
       d="m 518.89027,692.79848 35.15054,35.2291" />
    <path
       id="path261"
       style="fill:none;stroke:#000000;stroke-width:1.61139405;stroke-linecap:round"
       d="m 445.80823,728.09848 -32.08377,34.10886" />
    <path
       id="path263"
       style="fill:none;stroke:#000000;stroke-width:1.61139405;stroke-linecap:round"
       d="m 554.04081,728.02758 32.08378,34.10886" />
    <path
       id="path265"
       style="fill:none;stroke:#000000;stroke-width:1.61139405;stroke-linecap:round"
       d="m 413.72446,762.20734 -108.48363,0" />
    <path
       id="path267"
       style="fill:none;stroke:#000000;stroke-width:1.61139405;stroke-linecap:round"
       d="m 586.12459,762.13644 108.4836,0" />
    <path
       id="path269"
       style="fill:none;stroke:#000000;stroke-width:1.61139405;stroke-linecap:round"
       d="m 640.33736,357.32688 -0.6647,-58.53993" />
    <path
       id="path271"
       style="fill:none;stroke:#000000;stroke-width:1.61139405;stroke-linecap:round"
       d="M 639.67266,298.78695 499.3001,298.13635" />
    <path
       id="path273"
       style="fill:none;stroke:#000000;stroke-width:1.61139405;stroke-linecap:round"
       d="m 499.3001,298.13635 -140.37256,-0.6506" />
    <path
       id="path275"
       style="fill:none;stroke:#000000;stroke-width:1.61139405;stroke-linecap:round"
       d="m 358.92754,297.48575 0,59.19053" />
    <path
       id="path277"
       style="fill:none;stroke:#000000;stroke-width:1.61139405;stroke-linecap:round"
       d="m 358.92754,356.67628 0,59.1885" />
    <path
       id="path279"
       style="fill:none;stroke:#000000;stroke-width:1.61139405;stroke-linecap:round"
       d="m 358.92754,415.86478 141.0433,0" />
    <path
       id="path281"
       style="fill:none;stroke:#000000;stroke-width:1.61139405;stroke-linecap:round"
       d="m 499.97084,415.86478 141.04331,0" />
    <path
       id="path283"
       style="fill:none;stroke:#000000;stroke-width:1.61139405;stroke-linecap:round"
       d="m 641.01415,415.86478 -0.67584,-58.5379" />
    <path
       id="path285"
       style="fill:none;stroke:#000000;stroke-width:1.61139405;stroke-linecap:round"
       d="m 640.33831,357.32688 -9.5e-4,0" />
    <path
       id="path287"
       style="fill:none;stroke:#000000;stroke-width:1.61139405;stroke-linecap:round"
       d="m 415.39038,361.65549 a 23.293632,23.293632 0 0 0 9.52374,11.34018" />
    <path
       id="path289"
       style="fill:none;stroke:#000000;stroke-width:1.61139405;stroke-linecap:round"
       d="m 415.39038,361.65549 c -3.11321,-7.45109 -3.20082,-10.10344 -0.51758,-15.68451" />
    <path
       id="path291"
       style="fill:none;stroke:#000000;stroke-width:1.61139405;stroke-linecap:round"
       d="m 449.50569,340.83528 a 20.476728,20.476728 0 0 0 -34.63289,5.1357" />
    <path
       id="path293"
       style="fill:none;stroke:#000000;stroke-width:1.61139405;stroke-linecap:round"
       d="m 449.50569,340.83528 c 14.01872,15.04739 -5.16654,40.13781 -24.58988,32.16141" />
    <path
       id="path295"
       style="fill:none;stroke:#000000;stroke-width:1.61139405;stroke-linecap:round"
       d="m 424.91581,372.99669 -0.002,-10e-4" />
    <path
       id="path297"
       style="fill:none;stroke:#000000;stroke-width:1.61139405;stroke-linecap:round"
       d="m 558.73838,373.0825 c -11.55389,-4.66257 -17.19881,-21.41543 -10.26055,-30.45334" />
    <path
       id="path299"
       style="fill:none;stroke:#000000;stroke-width:1.61139405;stroke-linecap:round"
       d="m 567.40567,332.77608 a 28.134943,28.134943 0 0 0 -18.92784,9.85308" />
    <path
       id="path301"
       style="fill:none;stroke:#000000;stroke-width:1.61139405;stroke-linecap:round"
       d="m 567.40567,332.77608 c 6.9715,0 17.32087,8.91101 18.69439,16.09643" />
    <path
       id="path303"
       style="fill:none;stroke:#000000;stroke-width:1.61139405;stroke-linecap:round"
       d="m 586.10006,348.87251 c 1.71504,8.97163 -4.3846,21.33284 -11.94526,24.20717" />
    <path
       id="path305"
       style="fill:none;stroke:#000000;stroke-width:1.61139405;stroke-linecap:round"
       d="m 574.1548,373.07968 c -7.62452,2.89889 -8.23806,2.89889 -15.41642,0.002" />
    <path
       id="path307"
       style="fill:none;stroke:#000000;stroke-width:1.61139405;stroke-linecap:round"
       d="m 558.73838,373.08169 0,8.1e-4" />
    <path
       id="path309"
       style="fill:none;stroke:#000000;stroke-width:1.61139405;stroke-linecap:round"
       d="m 482.86187,669.45808 c -8.61492,-8.69218 -15.66356,-16.93914 -15.66356,-18.32671" />
    <path
       id="path311"
       style="fill:none;stroke:#000000;stroke-width:1.61139405;stroke-linecap:round"
       d="m 467.19831,651.13137 c 0,-1.38757 7.36447,-9.82193 16.36572,-18.74309" />
    <path
       id="path313"
       style="fill:none;stroke:#000000;stroke-width:1.61139405;stroke-linecap:round"
       d="m 483.56403,632.38828 16.35565,-16.21465" />
    <path
       id="path315"
       style="fill:none;stroke:#000000;stroke-width:1.61139405;stroke-linecap:round"
       d="m 499.91968,616.17363 16.35565,16.21465" />
    <path
       id="path317"
       style="fill:none;stroke:#000000;stroke-width:1.61139405;stroke-linecap:round"
       d="m 516.27533,632.38828 c 9.00125,8.921 16.36572,17.41869 16.36572,18.88344" />
    <path
       id="path319"
       style="fill:none;stroke:#000000;stroke-width:1.61139405;stroke-linecap:round"
       d="m 532.64105,651.27172 c 0,2.59693 -30.36068,33.99043 -32.87244,33.99043" />
    <path
       id="path321"
       style="fill:none;stroke:#000000;stroke-width:1.61139405;stroke-linecap:round"
       d="m 482.84113,669.45808 a 161.51421,161.51421 0 0 0 16.92748,15.80407" />
    <path
       id="path323"
       style="fill:none;stroke:#000000;stroke-width:1.61139405;stroke-linecap:round"
       d="m 482.84113,669.45808 0.0208,0" />
    <path
       id="path325"
       style="fill:none;stroke:#000000;stroke-width:1.61139405;stroke-linecap:round"
       d="M 305.24083,762.20734 361.46411,529.07971" />
    <path
       id="path327"
       style="fill:none;stroke:#000000;stroke-width:1.61139405;stroke-linecap:round"
       d="M 694.60819,762.13644 638.38492,529.00881" />
    <path
       id="path329"
       style="fill:none;stroke:#000000;stroke-width:1.61139405;stroke-linecap:round"
       d="m 175.02879,505.3434 137.03193,5.70965" />
    <path
       id="path331"
       style="fill:none;stroke:#000000;stroke-width:1.61139405;stroke-linecap:round"
       d="M 123.64179,630.95607 312.06072,511.05305" />
    <path
       id="path333"
       style="fill:none;stroke:#000000;stroke-width:1.61139405;stroke-linecap:round"
       d="M 58.437051,444.57853 175.02879,505.3434" />
    <path
       id="path335"
       style="fill:none;stroke:#000000;stroke-width:1.61139405;stroke-linecap:round"
       d="m 824.82026,505.2725 -137.03194,5.70965" />
    <path
       id="path337"
       style="fill:none;stroke:#000000;stroke-width:1.61139405;stroke-linecap:round"
       d="M 941.41198,444.50763 824.82026,505.2725" />
    <path
       id="path339"
       style="fill:none;stroke:#000000;stroke-width:1.61139405;stroke-linecap:round"
       d="M 876.20723,630.88517 687.78832,510.98215" />
    <path
       id="path341"
       style="fill:none;stroke:#000000;stroke-width:1.61139405;stroke-linecap:round"
       d="M 58.437051,444.57853 70.164374,300.81673" />
    <path
       id="path343"
       style="fill:none;stroke:#000000;stroke-width:1.61139405;stroke-linecap:round"
       d="m 123.64179,630.95607 39.96765,142.74164" />
    <path
       id="path345"
       style="fill:none;stroke:#000000;stroke-width:1.61139405;stroke-linecap:round"
       d="M 941.41198,444.50763 929.68464,300.74582" />
    <path
       id="path347"
       style="fill:none;stroke:#000000;stroke-width:1.61139405;stroke-linecap:round"
       d="M 876.20723,630.88517 836.23958,773.62681" />
  </g>
</svg>
