<?xml version="1.0" encoding="UTF-8" standalone="no"?>
<svg
   xmlns:dc="http://purl.org/dc/elements/1.1/"
   xmlns:cc="http://creativecommons.org/ns#"
   xmlns:rdf="http://www.w3.org/1999/02/22-rdf-syntax-ns#"
   xmlns:svg="http://www.w3.org/2000/svg"
   xmlns="http://www.w3.org/2000/svg"
   id="svg4554"
   version="1.1"
   width="1000"
   height="1000"
   viewBox="0 0 1000 1000">
  <metadata
     id="metadata4560">
    <rdf:RDF>
      <cc:Work
         rdf:about="">
        <dc:format>image/svg+xml</dc:format>
        <dc:type
           rdf:resource="http://purl.org/dc/dcmitype/StillImage" />
        <dc:title></dc:title>
      </cc:Work>
    </rdf:RDF>
  </metadata>
  <defs
     id="defs4558" />
  <path
     style="fill:#ffffff;fill-opacity:1;opacity:0.8"
     d="m 154.2566,783.75 -25.22868,-25.25 17.93505,-18.61029 17.93505,-18.61028 -19.29552,-68.88972 c -10.61254,-37.88934 -19.60139,-69.84385 -19.97524,-71.01002 -0.61316,-1.9127 8.45343,-7.92519 92.59651,-61.40524 51.30193,-32.60672 93.70373,-59.66508 94.22623,-60.12969 0.6,-0.53353 0.6,-1.16163 0,-1.70484 -0.5225,-0.47304 -31.55,-2.09821 -68.95,-3.61148 l -68,-2.75141 -57.75,-30.08504 C 73.489812,398.63452 60,391.18049 60,389.78124 60,388.77709 62.475,357.78488 65.5,320.90966 68.525,284.03444 71,252.41439 71,250.64289 71,247.58949 69.933191,246.6702 50.486871,232.9664 37.430261,223.76541 30.156955,218.03337 30.477767,217.19734 31.519343,214.48304 70.31716,160 71.208462,160 72.654545,160 81,165.98249 81,167.01912 c 0,0.50768 -5.213257,8.47356 -11.585015,17.70196 -6.371758,9.22841 -13.172334,19.6126 -15.112389,23.07599 -3.464653,6.1851 -3.494259,6.33408 -1.664985,8.37859 3.654811,4.08483 22.985466,18.198 57.862389,42.2449 22.59495,15.57874 25.76054,17.65139 31.18899,20.42078 3.93739,2.0087 4.24028,2.02799 6.06722,0.38646 3.10247,-2.78763 9.17197,-10.67802 21.14941,-27.49436 l 11.22974,-15.76655 2.94767,1.74123 c 1.62122,0.95768 4.08474,2.65263 5.4745,3.76655 l 2.52684,2.02533 -20.29219,29.20927 c -12.73029,18.32442 -20.7818,29.04068 -21.60607,28.75687 -0.72265,-0.24883 -9.859,-6.35664 -20.30302,-13.57293 -10.44401,-7.21629 -19.27978,-12.82985 -19.63505,-12.47458 -0.64151,0.6415 -8.58336,89.65083 -8.0347,90.04988 0.15766,0.11466 19.29329,11.1198 42.52361,24.45586 l 42.23695,24.24739 98.26305,4.39676 c 83.68248,3.74436 105.34551,4.39934 145.994,4.41412 L 477.9619,423 l 0.56767,-2.26178 c 0.31221,-1.24397 0.43329,-5.63147 0.26905,-9.75 L 478.5,403.5 397.75,403.24409 317,402.98817 317,305.99409 317,209 l 182.5,0 182.5,0 0,97 0,97 -80.53621,0 -80.53621,0 0.28621,9.75 0.28621,9.75 48.5,0.26318 48.5,0.26318 94.5,-7.61249 94.5,-7.61249 44.97594,-20.92663 c 24.73677,-11.50965 45.29901,-21.25246 45.69387,-21.65069 0.79557,-0.80237 -6.62425,-89.01183 -7.56658,-89.95416 -0.32524,-0.32524 -5.20652,2.60308 -10.84729,6.50738 -24.46283,16.93214 -29.80763,20.50129 -30.13501,20.12355 -0.61792,-0.71298 -37.21352,-53.3138 -38.98195,-56.03087 l -1.7118,-2.63004 5.03873,-3.61996 C 816.7372,237.62898 819.19674,236 819.43154,236 c 0.2348,0 6.29534,8.2125 13.46786,18.25 7.17253,10.0375 14.84599,20.21019 17.05213,22.60598 l 4.01118,4.35598 5.76864,-3.25019 C 872.38572,270.83199 926.16882,233.299 941.74,220.73135 l 7.23999,-5.84347 -1.38089,-3.30493 c -1.61995,-3.8771 -11.12651,-18.60853 -21.91794,-33.96422 l -7.64697,-10.88126 5.23291,-3.73144 c 3.87113,-2.76041 5.53181,-3.44189 6.38152,-2.61874 1.61779,1.56721 39.322,55.35452 39.8642,56.86867 0.26164,0.73066 -8.10366,7.27084 -20.27114,15.84844 -20.43658,14.40698 -20.71329,14.6503 -20.47034,18 0.13545,1.86758 2.74221,34.1582 5.79279,71.75694 3.05059,37.59874 5.40912,68.48274 5.24119,68.63111 C 939.6374,391.64083 913.625,405.24688 882,421.72813 l -57.5,29.96591 -64.5,2.67378 c -35.475,1.47058 -66.4125,2.66442 -68.75,2.65298 -2.83078,-0.0138 -4.25,0.41323 -4.25,1.27896 0,0.71487 42.26724,28.1935 93.92721,61.06361 l 93.92721,59.76385 -1.37809,4.68639 c -0.75795,2.57751 -9.73195,34.53492 -19.94223,71.01645 l -18.56414,66.33007 17.98058,18.66993 17.98059,18.66994 -25.4602,25.49221 -25.4602,25.4922 -4.67075,-4.67074 -4.67075,-4.67075 15.31304,-15.82146 C 841.1331,768.66758 849,759.64964 849,757.93588 c 0,-0.48649 -2.65602,-3.93358 -5.90226,-7.6602 -7.83627,-8.99589 -65.37873,-66.22627 -71.05024,-70.6649 -4.39942,-3.44308 -4.48746,-3.46451 -7.3861,-1.7977 -1.61349,0.92781 -11.12378,9.65209 -21.13398,19.3873 l -18.20036,17.70037 -4.65013,-4.72112 -4.65013,-4.72112 25.47773,-25.46304 25.47773,-25.46303 7.75887,7.47967 c 4.26738,4.11383 12.15955,11.75653 17.53815,16.98379 6.26905,6.09264 10.03798,9.08929 10.5,8.34846 0.9818,-1.57427 23.5368,-86.37089 23.08248,-86.77971 -3.47483,-3.12683 -187.88097,-125.34259 -188.24219,-124.75811 -0.28206,0.45637 12.06316,52.97152 27.4338,116.70032 C 680.42402,656.23567 693,708.5175 693,708.68871 693,708.85992 669.19845,709 640.10766,709 l -52.89234,0 -21.52263,-22.75 c -11.83744,-12.5125 -26.70383,-27.88569 -33.03641,-34.16265 l -11.51379,-11.41264 15.84958,-16.58736 C 553.87939,606.41395 559,600.46217 559,598.50712 c 0,-1.5822 -9.15375,-11.77143 -25.18389,-28.03272 l -12.84045,-13.02561 4.78291,-4.71099 4.78292,-4.711 25.38748,25.40213 25.38748,25.40213 -11.209,11.471 -11.209,11.47101 24.80078,24.58618 24.80077,24.58618 15.31739,0.0273 c 14.12974,0.0252 15.27639,-0.1084 14.78867,-1.72271 C 638.31527,668.2875 627.01393,623.175 613.49197,569 599.97001,514.825 588.4596,468.81003 587.91328,466.74452 l -0.99332,-3.75549 -87.14758,0.25549 -87.14757,0.25548 -25.78255,103 c -14.1804,56.65 -25.79598,103.3375 -25.8124,103.75 -0.0164,0.4125 6.83264,0.74748 15.22014,0.74441 l 15.25,-0.006 24.76316,-24.71556 24.76316,-24.71556 -11.25132,-11.28333 -11.25132,-11.28333 25.46741,-25.48212 25.46742,-25.48211 4.78315,4.71123 4.78315,4.71122 -13.34397,13.52538 C 448.70642,588.1798 441,596.91435 441,598.94819 c 0,1.88977 10.65792,13.93049 26.61442,30.06748 l 11.38687,11.51567 -11.58568,11.48433 c -6.37212,6.31638 -21.27086,21.72183 -33.1083,34.23433 l -21.52263,22.75 -52.89234,0 c -29.09079,0 -52.8838,-0.3375 -52.87337,-0.75 0.0104,-0.4125 12.56532,-52.725 27.89974,-116.25 15.33442,-63.525 27.67068,-115.84338 27.41393,-116.26307 -0.33177,-0.5423 -184.71287,121.78629 -188.24547,124.89241 -0.58416,0.51363 22.06284,85.66336 23.0959,86.83753 0.5139,0.5841 5.29764,-3.37798 12.0838,-10.0083 6.17822,-6.03634 14.05102,-13.66268 17.4951,-16.94741 l 6.26196,-5.97224 24.98804,24.97304 C 271.75539,693.24713 283,704.92134 283,705.45465 c 0,0.5333 -1.87947,2.88469 -4.17661,5.2253 l -4.1766,4.25565 -15.60963,-15.27558 c -19.96153,-19.53434 -25.52169,-24.00626 -28.1195,-22.61596 -5.52968,2.9594 -78.20162,76.12453 -79.41799,79.95697 -0.87031,2.7421 2.7634,7.16312 22.4247,27.28345 l 15.42437,15.78448 -4.38258,4.46552 C 182.55574,806.99052 180.33647,809 180.03444,809 c -0.30203,0 -11.90206,-11.3625 -25.77784,-25.25 z m 487.29805,-478.5 c -0.4041,-32.8625 -0.80671,-59.81197 -0.89469,-59.88772 -0.088,-0.0757 -63.72246,-0.4681 -141.40996,-0.87189 L 358,243.75622 l 0,60.62189 0,60.62189 142.14469,0 142.14468,0 -0.73472,-59.75 z m -79.70985,15.26471 c -6.0067,-2.20925 -8.83231,-4.56485 -11.90806,-9.92732 -6.28915,-10.96492 -2.81742,-21.11717 9.06326,-26.50336 6.04065,-2.73857 10.4381,-2.60337 15.70431,0.48283 9.85977,5.77821 12.71361,14.76441 7.91827,24.93314 -2.89647,6.14209 -5.86894,8.97 -11.52678,10.9662 -5.04899,1.78139 -4.54664,1.77875 -9.251,0.0485 z m -135.36339,-0.90828 c -4.48711,-1.95515 -9.13358,-7.82719 -11.08028,-14.00284 -1.63094,-5.17396 -1.63117,-5.71272 -0.004,-9.97293 2.14041,-5.60458 8.1589,-11.1647 13.70023,-12.65683 C 440.31859,279.95222 453,289.32719 453,300.64444 c 0,12.91834 -15.29279,23.85338 -26.51859,18.96199 z M 490.84329,623.25 C 480.26189,613.16911 469,600.39403 469,598.47176 c 0,-0.83355 6.9718,-8.5932 15.49289,-17.24366 l 15.49288,-15.7281 13.82461,14.00664 c 7.60353,7.70365 14.63425,15.24232 15.62382,16.75259 1.77802,2.7136 1.76557,2.79012 -1.05652,6.49336 C 524.06225,608.41546 501.49615,631 500.15335,631 c -0.6464,0 -4.83592,-3.4875 -9.31006,-7.75 z"
     id="path5104" />
</svg>
