<?xml version="1.0" encoding="UTF-8" standalone="no"?>
<!-- Created with Inkscape (http://www.inkscape.org/) -->
<svg id="svg4180" xmlns:rdf="http://www.w3.org/1999/02/22-rdf-syntax-ns#" xmlns="http://www.w3.org/2000/svg" viewBox="0 0 1000 1000" version="1.1" xmlns:cc="http://creativecommons.org/ns#" xmlns:dc="http://purl.org/dc/elements/1.1/">
 <metadata id="metadata4186">
  <rdf:RDF>
   <cc:Work rdf:about="">
    <dc:format>image/svg+xml</dc:format>
    <dc:type rdf:resource="http://purl.org/dc/dcmitype/StillImage"/>
    <dc:title/>
   </cc:Work>
  </rdf:RDF>
 </metadata>
 <path id="path4190" d="m142.36 965.25c0.27354-0.9625 29.204-120.89 64.29-266.5l63.79-264.74 95.53-0.26 95.53-0.25v-18-18l-149.75-0.25-149.75-0.26v-180.99-181h340.5 340.5v181 181h-149.89c-135.76 0-149.95 0.14914-150.5 1.5818-0.79093 2.0611-0.79093 31.775 0 33.836 0.54762 1.4271 9.9258 1.5818 95.878 1.5818h95.271l1.6966 6.75c4.5 17.92 126.54 524.58 126.54 525.35 0 0.53-41.55 0.9-99.34 0.9h-99.34l-27.867-29.75c-15.327-16.362-42.922-44.919-61.322-63.458l-33.455-33.708 23.565-23.989c25.75-26.213 41.608-43.4 45.576-49.395 2.4941-3.7688 2.5134-3.9312 0.83771-7.0292-2.9818-5.5127-16.06-19.613-55.121-59.432l-14.97-15.261 8.9562-8.9979 8.9562-8.9979 47.683 47.676 47.683 47.676-20.421 21.061c-11.23 11.59-20.42 21.31-20.42 21.61 0 0.29937 20.588 21.12 45.75 46.268l45.75 45.724 27.75 0.003c27.103 0.003 27.75-0.0436 27.75-2.001 0-1.4885-89.012-359.31-95.126-382.4l-1.0334-3.9028-161.67 0.73129c-88.916 0.40221-161.83 0.89535-162.03 1.0959-0.5934 0.59339-96.083 382.82-96.115 384.73-0.0277 1.6254 1.9499 1.75 27.782 1.75h27.812l45.688-45.088c25.13-24.81 45.69-45.85 45.69-46.77 0-0.91931-9.2262-10.889-20.503-22.156l-20.503-20.484 47.741-47.749 47.741-47.749 9.2254 9.1871 9.2254 9.1871-27.734 28.056c-26.114 26.417-40.339 42.045-43.133 47.388-1.0596 2.026-0.86245 2.8476 1.5022 6.2597 3.8155 5.5058 19.066 21.948 46.127 49.73l23.19 23.809-32.706 32.695c-17.988 17.982-45.524 46.386-61.19 63.12l-28.49 30.43-99.817 0.0649c-94.605 0.0615-99.791-0.0265-99.32-1.6851zm624.1-640.18c0.83915-1.3578-1.6185-219.42-2.484-220.4-1.066-1.2091-524.17-3.5874-525.72-2.3903-0.98667 0.76056-1.25 24.286-1.25 111.67 0 60.891 0.3 111.01 0.66667 111.38 1.0653 1.0653 528.13 0.80141 528.79-0.26475zm-150.96-81.58c-8.1067-3.33-13.24-7.0982-17.744-13.026-7.6222-10.031-10.441-23.153-7.297-33.967 3.0484-10.486 15.378-20.188 30.618-24.092 10.398-2.6637 19.119 0.58686 29.455 10.978 7.9054 7.9478 10.468 13.274 10.468 21.755 0 17.518-10.351 33.457-25.089 38.634-8.1566 2.865-12.912 2.7997-20.411-0.28058zm-248.53-0.0239c-9.1211-2.8117-17.161-12.125-22.064-25.56-3.5803-9.8102-3.6222-13.092-0.27368-21.457 10.046-25.094 40.428-32.059 59.299-13.594 8.674 8.4875 10.553 12.695 10.562 23.647 0.006 7.8108-0.35758 9.7427-2.7533 14.621-8.8058 17.931-28.003 27.512-44.77 22.343zm125.88 572.21c-11.679-10.413-35.933-35.489-43.875-45.362-4.687-5.8263-5.7817-7.8112-5.0558-9.1675 2.0856-3.897 16.948-19.866 37.133-39.898l21.416-21.253 15.867 15.753c18.328 18.197 36.817 38.09 40.418 43.49l2.4923 3.7369-5.8742 7.2139c-6.7621 8.3043-41.472 44.033-48.465 49.889l-4.703 3.9376-9.353-8.3395z"/>
</svg>
