<?xml version="1.0" encoding="UTF-8" standalone="no"?>
<!-- Created with Inkscape (http://www.inkscape.org/) -->
<svg id="svg4180" xmlns:rdf="http://www.w3.org/1999/02/22-rdf-syntax-ns#" xmlns="http://www.w3.org/2000/svg" viewBox="0 0 1000 1000" version="1.1" xmlns:cc="http://creativecommons.org/ns#" xmlns:dc="http://purl.org/dc/elements/1.1/">
 <metadata id="metadata4186">
  <rdf:RDF>
   <cc:Work rdf:about="">
    <dc:format>image/svg+xml</dc:format>
    <dc:type rdf:resource="http://purl.org/dc/dcmitype/StillImage"/>
    <dc:title/>
   </cc:Work>
  </rdf:RDF>
 </metadata>
 <path id="path4190" d="m142.36 965.25c0.27354-0.9625 29.204-120.89 64.29-266.5l63.79-264.74 95.53-0.26 95.53-0.25v-18-18l-149.75-0.25-149.75-0.26v-180.99-181h340.5 340.5v181 181h-149.89c-135.76 0-149.95 0.14914-150.5 1.5818-0.79093 2.0611-0.79093 31.775 0 33.836 0.54762 1.4271 9.9258 1.5818 95.878 1.5818h95.271l1.6966 6.75c4.5 17.92 126.54 524.58 126.54 525.35 0 0.53-41.55 0.9-99.34 0.9h-99.34l-27.867-29.75c-15.327-16.362-42.922-44.919-61.322-63.458l-33.455-33.708 23.565-23.989c25.75-26.213 41.608-43.4 45.576-49.395 2.4941-3.7688 2.5134-3.9312 0.83771-7.0292-2.9818-5.5127-16.06-19.613-55.121-59.432l-14.97-15.261 8.9562-8.9979 8.9562-8.9979 47.683 47.676 47.683 47.676-20.421 21.061c-11.23 11.59-20.42 21.31-20.42 21.61 0 0.29937 20.588 21.12 45.75 46.268l45.75 45.724 27.75 0.003c27.103 0.003 27.75-0.0436 27.75-2.001 0-1.4885-89.012-359.31-95.126-382.4l-1.0334-3.9028-161.67 0.73129c-88.916 0.40221-161.83 0.89535-162.03 1.0959-0.5934 0.59339-96.083 382.82-96.115 384.73-0.0277 1.6254 1.9499 1.75 27.782 1.75h27.812l45.688-45.088c25.13-24.81 45.69-45.85 45.69-46.77 0-0.91931-9.2262-10.889-20.503-22.156l-20.503-20.484 47.741-47.749 47.741-47.749 9.2254 9.1871 9.2254 9.1871-27.734 28.056c-26.114 26.417-40.339 42.045-43.133 47.388-1.0596 2.026-0.86245 2.8476 1.5022 6.2597 3.8155 5.5058 19.066 21.948 46.127 49.73l23.19 23.809-32.706 32.695c-17.988 17.982-45.524 46.386-61.19 63.12l-28.49 30.43-99.817 0.0649c-94.605 0.0615-99.791-0.0265-99.32-1.6851zm624.1-640.18c0.83915-1.3578-1.6185-219.42-2.484-220.4-1.066-1.2091-524.17-3.5874-525.72-2.3903-0.98667 0.76056-1.25 24.286-1.25 111.67 0 60.891 0.3 111.01 0.66667 111.38 1.0653 1.0653 528.13 0.80141 528.79-0.26475zm-150.96-81.58c-8.1067-3.33-13.24-7.0982-17.744-13.026-7.6222-10.031-10.441-23.153-7.297-33.967 3.0484-10.486 15.378-20.188 30.618-24.092 10.398-2.6637 19.119 0.58686 29.455 10.978 7.9054 7.9478 10.468 13.274 10.468 21.755 0 17.518-10.351 33.457-25.089 38.634-8.1566 2.865-12.912 2.7997-20.411-0.28058zm-248.53-0.0239c-9.1211-2.8117-17.161-12.125-22.064-25.56-3.5803-9.8102-3.6222-13.092-0.27368-21.457 10.046-25.094 40.428-32.059 59.299-13.594 8.674 8.4875 10.553 12.695 10.562 23.647 0.006 7.8108-0.35758 9.7427-2.7533 14.621-8.8058 17.931-28.003 27.512-44.77 22.343zm125.88 572.21c-11.679-10.413-35.933-35.489-43.875-45.362-4.687-5.8263-5.7817-7.8112-5.0558-9.1675 2.0856-3.897 16.948-19.866 37.133-39.898l21.416-21.253 15.867 15.753c18.328 18.197 36.817 38.09 40.418 43.49l2.4923 3.7369-5.8742 7.2139c-6.7621 8.3043-41.472 44.033-48.465 49.889l-4.703 3.9376-9.353-8.3395z"/>
 <g stroke-linejoin="round" stroke="#fff" stroke-linecap="round" stroke-width="73.281" fill="#fff">
  <path id="path4284" opacity=".8" d="m143.29 964.91c0-0.63376 20.273-85.231 45.051-187.99s53.404-221.51 63.613-263.89c10.209-42.376 18.896-77.382 19.304-77.79 0.40793-0.40827 43.569-0.90031 95.913-1.0934l95.172-0.35112v-18.533-18.533h-149.94-149.94v-180.38-180.38h339.91 339.91v180.37 180.37l-149.42 0.2981c-131.37 0.26208-149.55 0.50234-150.49 1.9892-1.6511 2.6121-1.3906 30.75 0.30582 33.033 1.2932 1.7408 9.2122 1.9592 96.18 2.6536l94.771 0.75667 30.773 127.49c16.925 70.122 45.455 188.63 63.4 263.35 17.945 74.718 32.891 136.74 33.213 137.82 0.55485 1.8685-4.6624 1.9729-98.531 1.9729h-99.117l-24.111-25.648c-13.25-14.12-40.66-42.4-60.91-62.87l-36.806-37.204 20.82-21.421c26.675-27.444 43.743-45.988 47.363-51.457 2.5048-3.785 2.6969-4.7233 1.5394-7.518-1.5969-3.8552-16.579-20.348-47.1-51.85l-22.773-23.505 8.4102-8.3541 8.4102-8.3541 47.257 47.247 47.257 47.247-20.385 21.328-20.385 21.328 46.11 46.12 46.11 46.12h27.38c23.931 0 27.466-0.2247 28.064-1.784 0.65082-1.696-27.507-116.83-73.872-302.05l-21.166-84.555-161.71 0.38868c-88.94 0.21377-162.11 0.76722-162.6 1.2299-1.954 1.8435-97.021 382.99-96.116 385.35 0.41702 1.0868 7.0801 1.4183 28.501 1.4183h27.957l45.359-45.41c24.947-24.976 45.359-46.076 45.359-46.89 0-0.81391-9.1136-10.713-20.252-21.998l-20.252-20.518 47.308-47.298 47.308-47.298 8.6381 8.6381 8.6381 8.6381-30.255 31.377c-32.44 33.643-40.003 42.38-40.004 46.214-0.001 4.1633 11.237 16.935 48.448 55.062 9.683 9.9211 18.55 19.181 19.704 20.577l2.0982 2.5383-37.106 37.484c-20.409 20.616-47.703 48.772-60.655 62.569l-23.548 25.085h-99.048c-66.707 0-99.048-0.37625-99.048-1.1523zm543.96-638.83 79.849-0.75066-0.89662-99.306c-0.48-54.61-1.2-104.37-1.58-110.57l-0.69413-11.274-55.242-0.68497c-30.383-0.37674-148.52-1.0826-262.52-1.5685-176.51-0.75236-207.42-0.65069-208.27 0.68498-0.55502 0.87646-1.0008 50.428-1.0105 112.31l-0.0173 110.74 22.83 0.32987c50.532 0.73018 352.81 0.7963 427.56 0.0936v-0.00004z"/>
  <path id="path4286" opacity=".8" d="m620.18 244.66c-9.9163-3.2308-18.19-9.1379-23.046-16.454-6.5497-9.8683-8.875-21.704-6.1749-31.428 1.3447-4.8428 8.5312-13.259 14.564-17.057 6.2808-3.9536 16.549-7.346 22.234-7.346 12.935 0 30.356 15.431 32.49 28.778 1.7027 10.65-4.196 26.63-12.736 34.502-8.0461 7.4166-20.058 11.374-27.332 9.004z"/>
  <path id="path4288" opacity=".8" d="m369.17 243.52c-9.032-2.3187-15.976-9.3123-22.114-22.273-2.8782-6.0772-3.6506-9.1586-3.6302-14.484 0.0461-12.022 7.92-23.81 19.905-29.799 5.9117-2.9541 8.1721-3.4576 15.48-3.4482 10.522 0.0135 17.368 2.8714 25.251 10.541 7.3033 7.1055 9.7447 12.802 9.7757 22.808 0.0207 6.6719-0.53944 9.1226-3.3875 14.822-7.743 15.495-26.769 25.558-41.28 21.833z"/>
  <path id="path4290" opacity=".8" d="m477.8 800.04c-20.532-20.583-33.498-35.352-33.498-38.156 0-1.6917 16.572-19.48 37.983-40.771l20.148-20.035 23.159 23.417c23.116 23.375 35.236 36.925 34.603 38.686-1.5702 4.3673-55.546 59.703-58.235 59.703-0.75427 0-11.626-10.28-24.159-22.844z"/>
 </g>
</svg>
