<?xml version="1.0" encoding="UTF-8" standalone="no"?>
<!-- Created with Inkscape (http://www.inkscape.org/) -->
<svg id="svg2" xmlns:rdf="http://www.w3.org/1999/02/22-rdf-syntax-ns#" xmlns="http://www.w3.org/2000/svg" viewBox="0 0 512 512" version="1.1" xmlns:cc="http://creativecommons.org/ns#" xmlns:dc="http://purl.org/dc/elements/1.1/">
 <metadata id="metadata8">
  <rdf:RDF>
   <cc:Work rdf:about="">
    <dc:format>image/svg+xml</dc:format>
    <dc:type rdf:resource="http://purl.org/dc/dcmitype/StillImage"/>
    <dc:title/>
   </cc:Work>
  </rdf:RDF>
 </metadata>
 <path id="path4138" d="m24.405 407.35c-11.093-3.31-19.091-12.74-21.407-25.24-1.3587-7.3325-1.3587-244.89 0-252.23 1.5321-8.2686 5.8014-15.773 11.366-19.979 9.3673-7.0798 9.1119-7.0567 74.136-6.7137l58 0.30594 5.5061 2.583c10.392 4.8753 16.351 13.55 17.994 26.195 1.2792 9.8472 1.2601 239.15-0.0207 248.01-1.7782 12.298-7.773 20.847-17.973 25.632l-5.51 2.59-58.5 0.18c-49.822 0.15755-59.256-0.0405-63.595-1.3351zm119.58-11.44c9.72-2.08 14.02-9.01 14.02-22.59v-6.3185h-71.5-71.5l0.02196 7.75c0.03516 12.407 3.7011 18.409 12.727 20.837 6.2566 1.6832 108.56 1.9684 116.23 0.32393zm-64.057-6.83c-2.292-2.3-2.923-3.82-2.923-7.08 0-10.68 13.992-13.88 18.883-4.32 3.429 6.71-1.294 14.32-8.883 14.32-3.2578 0-4.7844-0.63058-7.0769-2.9231zm8.6308-6.164c1.0305-1.6674-1.2872-3.5795-2.6667-2.2-1.154 1.15-0.432 3.28 1.113 3.28 0.48508 0 1.1843-0.48921 1.5539-1.0871zm69.446-129.92v-101h-71.5-71.5v101 101h71.5 71.5v-101zm0-117.32c0-5.7979-2.8255-13.357-5.9873-16.017-5.15-4.33-9.82-4.66-65.51-4.66-54.587 0-60.149 0.36282-65.085 4.2456-3.6315 2.8566-6.3665 9.2756-6.393 15.004l-0.022 4.75h71.5 71.5v-3.3185zm69.23 270.78c-13.08-3.55-20.31-11.18-23.18-24.46-0.86234-3.9882-1.101-20.893-0.86837-61.5l0.32087-56 2.6011-5.5456c3.5899-7.6538 8.0306-12.38 14.717-15.664l5.68-2.79h130 130l5 2.4744c6.7861 3.3582 12.905 9.912 15.689 16.805 2.3014 5.6973 2.3123 5.9468 2.6255 60.221 0.33428 57.932 0.0625 62.362-4.3601 71.09-2.9271 5.7764-10.06 12.175-16.26 14.585-4.446 1.7285-11.364 1.8354-130.69 2.0189-106.5 0.16381-126.82-0.0272-131.27-1.2346zm12.77-83.1v-71.642l-6.0251 0.62974c-9.3841 0.98083-15.032 4.8811-16.999 11.738-0.58 2.03-0.97 26.33-0.97 60.44v57.045l2.25 4.4619c2.88 5.71 8.84 8.96 16.46 8.96h5.2881v-71.642zm215 0.14246v-71.5h-101.5-101.5v71.5 71.5h101.5 101.5v-71.5zm33.015 69.25c2.6288-1.3325 5.2639-3.6773 6.4619-5.75 1.9566-3.3854 2.0321-5.3751 2.3042-60.777 0.19645-39.993-0.0569-58.533-0.8396-61.44-2.33-8.6-10-12.78-23.5-12.78h-5.45v71.5 71.5h8.2881c6.6132 0 9.1852-0.45471 12.727-2.25zm-8.7204-59.837c-4.23-1.24-6.3-4.4-6.3-9.58 0-6.2578 3.3935-9.8333 9.3328-9.8333 7.7505 0 12.276 6.7148 9.3095 13.812-2.2942 5.4885-6.4091 7.3549-12.348 5.6007zm-229.82-141.53c-8.1-11.34-14.95-21.46-15.22-22.5-0.87-3.31 2.36-6.88 6.22-6.88 3.2296 0 3.9069 0.66825 11.649 11.494 4.5213 6.3218 8.3632 11.351 8.5376 11.177 0.67328-0.67327-1.7894-27.407-3.0972-33.622-2.5947-12.33-5.3467-18.09-11.575-24.224-7.41-7.29-14.61-9.77-30.5-10.52-13-0.62-15.5-1.71-15.5-6.8 0-2.5948 0.63152-3.8677 2.539-5.1175 4.7185-3.0916 29.03 0.0715 39.998 5.2043 18.563 8.6866 27.536 28.65 30.238 67.276l0.72487 10.362 5.9116-8.3623c10.32-14.61 12.4-16.86 15.58-16.86 1.5739 0 3.5688 0.70714 4.433 1.5714 3.3529 3.3529 1.9293 6.4315-11.981 25.91-7.454 10.438-14.274 19.774-15.155 20.748-0.90576 1.0008-3.0124 1.7704-4.8465 1.7704-3.078 0-3.999-1.0567-17.969-20.618z" fill="#fff"/>
</svg>
