<?xml version="1.0" encoding="UTF-8" standalone="no"?>
<!-- Created with Inkscape (http://www.inkscape.org/) -->
<svg id="svg2" xmlns:rdf="http://www.w3.org/1999/02/22-rdf-syntax-ns#" xmlns="http://www.w3.org/2000/svg" viewBox="0 0 225 225" version="1.1" xmlns:cc="http://creativecommons.org/ns#" xmlns:dc="http://purl.org/dc/elements/1.1/">
 <metadata id="metadata8">
  <rdf:RDF>
   <cc:Work rdf:about="">
    <dc:format>image/svg+xml</dc:format>
    <dc:type rdf:resource="http://purl.org/dc/dcmitype/StillImage"/>
    <dc:title/>
   </cc:Work>
  </rdf:RDF>
 </metadata>
 <path id="path4138" fill="#fff" d="m5.1101 223.6c-4.9214-2.72-5.0368-3.67-5.0747-41.43l-0.0354-35.32 2.9231-2.93c2.187-2.18 3.8633-2.92 6.6573-2.92 3.4249 0 4.7171 0.97077 15.6 11.72l11.866 11.72 25.98-25.97 25.979-25.96-25.977-25.977-25.977-25.977-11.868 11.722c-10.885 10.751-12.178 11.722-15.603 11.722-2.7936 0-4.4699-0.736-6.6569-2.923l-2.9231-2.923v-35.127c0-38.104 0.17182-39.417 5.4721-41.832 1.8734-0.85392 12.623-1.195 37.652-1.195h35.03l2.9231 2.9231c2.187 2.187 2.923 3.8633 2.923 6.6573 0 3.4246-0.971 4.7176-11.72 15.6l-11.719 11.866 25.965 25.98 25.964 25.979 25.98-25.977 25.97-25.977-11.72-11.868c-10.75-10.885-11.72-12.178-11.72-15.603 0-2.794 0.73601-4.4703 2.9231-6.6573l2.93-2.9227h35.12c38.104 0 39.418 0.17182 41.833 5.4721 0.86 1.8734 1.2 12.623 1.2 37.652v35.03l-2.9231 2.9231c-2.19 2.187-3.87 2.923-6.66 2.923-3.43 0-4.72-0.971-15.6-11.722l-11.868-11.722-25.977 25.977-25.977 25.977 25.979 25.965 25.979 25.965 11.866-11.72c10.88-10.75 12.17-11.72 15.6-11.72 2.794 0 4.4703 0.73601 6.6573 2.9231l2.9231 2.9231v35.03c0 25.029-0.34108 35.778-1.1947 37.652-2.42 5.31-3.73 5.48-41.84 5.48h-35.127l-2.9231-2.9231c-2.18-2.19-2.92-3.87-2.92-6.66 0-3.4249 0.97077-4.7171 11.72-15.6l11.72-11.866-25.965-25.979-25.965-25.979-25.977 25.977-25.977 25.977 11.722 11.868c10.751 10.88 11.722 12.17 11.722 15.6 0 2.794-0.73601 4.4703-2.9231 6.6573l-2.923 2.92-35.327-0.04c-27.4-0.02-35.863-0.33-37.717-1.36z"/>
</svg>
