<?xml version="1.0" encoding="UTF-8" standalone="no"?>
<!-- Created with Inkscape (http://www.inkscape.org/) -->
<svg id="svg2" xmlns:rdf="http://www.w3.org/1999/02/22-rdf-syntax-ns#" xmlns="http://www.w3.org/2000/svg" viewBox="0 0 640 640" version="1.1" xmlns:cc="http://creativecommons.org/ns#" xmlns:dc="http://purl.org/dc/elements/1.1/">
 <metadata id="metadata8">
  <rdf:RDF>
   <cc:Work rdf:about="">
    <dc:format>image/svg+xml</dc:format>
    <dc:type rdf:resource="http://purl.org/dc/dcmitype/StillImage"/>
    <dc:title/>
   </cc:Work>
  </rdf:RDF>
 </metadata>
 <path id="path4138" fill-opacity=".755" d="m145.62 632.43c-85.207-13.38-122.25-19.96-127.17-22.59-2.068-1.11-2.198-6.41-2.171-88.32l0.029-87.14 19.658-17.08c28.488-24.74 56.169-47.8 60.381-50.28l3.653-2.16 0.15625 48.821c0.0859 26.851 0.29688 49.946 0.46875 51.321 0.17188 1.375 0.38281 5.875 0.46875 10 0.0859 4.125 0.62829 7.5 1.2052 7.5 0.99668 0 37.033-29.634 85.933-70.665 39.252-32.936 49.285-40.846 50.981-40.195 1.7815 0.68362 37.505 42.63 44.225 51.929 2.2344 3.0919 4.0625 6.2596 4.0625 7.0394s-27.879 25.853-61.954 55.717c-73.578 64.487-68.046 59.533-68.046 60.941 0 0.62471 2.6719 1.4745 5.9375 1.8884 38.536 4.8841 107.31 16.527 108.45 18.359 0.70738 1.1446-16.404 17.025-41.883 38.87-26.718 22.907-39.262 32.386-42.68 32.252-1.62-0.0635-20.383-2.8534-41.695-6.1999zm280.08-4.6397c-6.8314-6.006-24.501-21.326-39.266-34.045-25.759-22.189-30.272-26.582-28.809-28.045 0.56672-0.56673 70.777-11.139 105.22-15.845 6.8148-0.93099 10.809-2.018 10.534-2.8671-0.38955-1.2048-84.197-75.339-117.76-104.17-6.875-5.9053-12.672-11.437-12.882-12.292-0.60163-2.447 47.108-59.992 51.005-61.519 0.50772-0.19898 19.705 15.832 42.66 35.625 71.463 61.618 91.196 78.175 92.097 77.275 0.47886-0.47836 1.0275-26.98 1.2192-58.892 0.25-40.49 0.76-58.02 1.7-58.02 1.715 0 14.058 10.176 52.016 42.884l30.312 26.12v87.939 87.939l-4.6875 1.326c-7.026 1.9875-51.567 9.5517-77.812 13.215-12.719 1.775-25.656 3.7901-28.75 4.478-6.7558 1.502-59.834 9.8486-62.5 9.8282-1.0312-0.008-7.4643-4.9283-14.296-10.934zm-323.85-356.8c-8.507-6.86-36.607-30.81-56.538-48.2l-19.062-16.63v-88.081c0-48.444 0.253-88.08 0.562-88.08s8.887-1.648 19.062-3.663c10.176-2.014 32.282-5.681 49.126-8.148s38.5-5.8631 48.125-7.5469c9.625-1.6837 25.094-4.2117 34.375-5.6177 9.2812-1.406 18.323-2.8534 20.093-3.2165 2.7724-0.56872 7.3565 2.9238 33.102 25.219 16.436 14.234 34.267 29.506 39.623 33.937 9.9134 8.2016 13.249 12.31 11.36 13.992-0.57931 0.51593-26.55 4.6241-57.713 9.1293s-56.934 8.4657-57.269 8.8012c-0.94386 0.94387 14.472 14.733 97.991 87.655 18.047 15.757 32.812 29.291 32.812 30.077 0 2.2974-19.717 26.36-42.204 51.505l-9.1653 10.249-67.128-57.618-67.128-57.618-0.82799 6.1192c-0.4554 3.3656-0.87727 28.995-0.9375 56.955-0.0602 27.959-0.45094 51.725-0.86825 52.812-1.0473 2.7293-1.7172 2.5453-7.394-2.0319zm438.14-41.93c-0.0125-39.242-0.81278-70.013-1.8554-71.286-0.37378-0.45628-29.264 23.252-71.256 58.475-18.562 15.57-40.742 34.036-49.287 41.036l-15.537 12.726-3.0378-2.8194c-3.2388-3.006-37.469-43.528-43.135-51.062-1.8581-2.4712-3.3784-5.1121-3.3784-5.8688 0-1.3811 11.451-11.65 69.375-62.212 17.188-15.003 38.228-33.485 46.756-41.071l15.506-13.792-4.2557-0.87642c-2.35-0.483-19.73-3.208-38.64-6.056-32.47-4.893-65.48-10.528-70.31-12.006-1.21-0.368-2.19-1.153-2.19-1.744 0-2.644 51.04-47.573 71.76-63.167 5.72-4.3042 10.32-6.839 12.42-6.839 9.713 0 151.29 23.035 163.32 26.571 5.6122 1.6506 5.6268 1.6699 6.4389 8.4791 0.44764 3.7536 0.86952 43.152 0.9375 87.551l0.12363 80.727-9.0625 8.1049c-33.19 29.68-70.98 61.07-73.52 61.07-0.70271 0-1.1736-18.303-1.182-45.938z"/>
</svg>
