<?xml version="1.0" encoding="UTF-8" standalone="no"?>
<svg
   xmlns:dc="http://purl.org/dc/elements/1.1/"
   xmlns:cc="http://creativecommons.org/ns#"
   xmlns:rdf="http://www.w3.org/1999/02/22-rdf-syntax-ns#"
   xmlns:svg="http://www.w3.org/2000/svg"
   xmlns="http://www.w3.org/2000/svg"
   id="svg2"
   viewBox="0 0 250 250"
   version="1.1">
  <defs
     id="defs7" />
  <metadata
     id="metadata8">
    <rdf:RDF>
      <cc:Work
         rdf:about="">
        <dc:format>image/svg+xml</dc:format>
        <dc:type
           rdf:resource="http://purl.org/dc/dcmitype/StillImage" />
        <dc:title></dc:title>
      </cc:Work>
    </rdf:RDF>
  </metadata>
  <path
     id="path4138"
     d="m33.75 178.12v-71.875h40 40v-4.375-4.375h-40-40v-48.75-48.75h91.25 91.25v48.75 48.75h-40-40v4.3574 4.3574l39.688 0.33006 39.688 0.33006 0.32274 71.562 0.32274 71.562h-23.464-23.464l-17.46-17.494-17.46-17.494 9.6644-9.7215c5.31-5.34 9.66-10.25 9.66-10.9 0-0.65708-4.345-5.5653-9.6555-10.907l-9.6555-9.7124 2.7867-2.7867 2.7867-2.7867 13.109 13.064 13.109 13.064-5.6057 5.6913-5.6057 5.6913 11.577 11.529 11.577 11.529h8.414 8.414v-50.625-50.625h-70-70v50.625 50.625h8.414 8.414l11.577-11.529 11.577-11.529-5.6057-5.6913-5.6057-5.6913 13.109-13.064 13.109-13.064 2.7867 2.7867 2.7867 2.7867-9.6555 9.7124c-5.31 5.34-9.65 10.25-9.65 10.91 0 0.65707 4.349 5.5694 9.6644 10.916l9.6644 9.7215-17.451 17.49-17.461 17.49h-23.454-23.454v-71.875zm160.96-129.68-0.33-29.063-69.69-0.323-69.69-0.323v29.386 29.385h70.023 70.023l-0.33553-29.062zm-106.95 7.779c-1.5774-0.64787-3.7051-3.1814-4.7282-5.63-1.5456-3.6992-1.5891-5.016-0.25696-7.7868 3.4136-7.1003 11.796-8.3434 17.194-2.5497 6.9598 7.4705-2.565 19.927-12.208 15.967zm66.439 0.0431c-5.7361-2.3148-8.5386-10.632-5.094-15.119 2.0048-2.6112 6.3857-4.8917 9.397-4.8917 3.4611 0 8.5992 4.424 9.2811 7.9913 0.85146 4.4541-2.1768 10.591-5.9304 12.018-3.7853 1.4392-4.0899 1.4392-7.6537 0.001zm-37.67 147.14c-4.277-4.3154-7.7764-8.4097-7.7764-9.0986 0-0.68886 3.6562-4.8762 8.125-9.3053l8.12-8.05 8.12 8.05c4.4688 4.429 8.125 8.6478 8.125 9.375 0 1.2893-15.073 16.875-16.32 16.875-0.34512 0-4.1269-3.5308-8.4039-7.8461z"
     style="fill:#ffffff;fill-opacity:1;opacity:0.8" />
</svg>
