999
dxflib 3.12.2.0
  0
SECTION
  2
HEADER
  9
$ACADVER
  1
AC1015
  9
$HANDSEED
  5
FFFF
  9
$DIMADEC
 70
0
  9
$DIMASZ
 40
2.5
  9
$DIMAUNIT
 70
0
  9
$DIMAZIN
 70
2
  9
$DIMDEC
 70
4
  9
$DIMEXE
 40
1.25
  9
$DIMEXO
 40
0.625
  9
$DIMGAP
 40
0.625
  9
$DIMLUNIT
 70
2
  9
$DIMSCALE
 40
1.0
  9
$DIMTSZ
 40
0.0
  9
$DIMTXT
 40
2.5
  9
$DIMZIN
 70
8
  9
$DWGCODEPAGE
  3
ANSI_1252
  9
$INSUNITS
 70
4
  9
$LTSCALE
 40
1.0
  9
$MEASUREMENT
 70
1
  9
$PDMODE
 70
0
  9
$PDSIZE
 40
0
  0
ENDSEC
  0
SECTION
  2
TABLES
  0
TABLE
  2
VPORT
  5
8
100
AcDbSymbolTable
 70
1
  0
VPORT
  5
30
100
AcDbSymbolTableRecord
100
AcDbViewportTableRecord
  2
*Active
 70
0
 10
0.0
 20
0.0
 11
1.0
 21
1.0
 12
286.3055555555554861
 22
148.5
 13
0.0
 23
0.0
 14
10.0
 24
10.0
 15
10.0
 25
10.0
 16
0.0
 26
0.0
 36
1.0
 17
0.0
 27
0.0
 37
0.0
 40
297.0
 41
1.92798353909465
 42
50.0
 43
0.0
 44
0.0
 50
0.0
 51
0.0
 71
0
 72
100
 73
1
 74
3
 75
1
 76
1
 77
0
 78
0
281
0
 65
1
110
0.0
120
0.0
130
0.0
111
1.0
121
0.0
131
0.0
112
0.0
122
1.0
132
0.0
 79
0
146
0.0
  0
ENDTAB
  0
TABLE
  2
LTYPE
  5
5
100
AcDbSymbolTable
 70
41
  0
LTYPE
  5
16
100
AcDbSymbolTableRecord
100
AcDbLinetypeTableRecord
  2
Continuous
 70
0
  3
Solid line
 72
65
 73
0
 40
0.0
  0
LTYPE
  5
31
100
AcDbSymbolTableRecord
100
AcDbLinetypeTableRecord
  2
ACAD_ISO15W100
 70
0
  3
ISO double-dash triple-dot __ __ . . . __ __ . .
 72
65
 73
10
 40
39.0000000000000071
 49
12.0
 74
0
 49
-3.0
 74
0
 49
12.0
 74
0
 49
-2.9500000000000002
 74
0
 49
0.1
 74
0
 49
-2.9000000000000004
 74
0
 49
0.1
 74
0
 49
-2.9000000000000004
 74
0
 49
0.1
 74
0
 49
-2.9500000000000002
 74
0
  0
LTYPE
  5
32
100
AcDbSymbolTableRecord
100
AcDbLinetypeTableRecord
  2
DIVIDE
 70
0
  3
Divide ____ . . ____ . . ____ . . ____ . . ____
 72
65
 73
6
 40
31.7500000000000036
 49
12.6999999999999993
 74
0
 49
-6.2999999999999998
 74
0
 49
0.1
 74
0
 49
-6.25
 74
0
 49
0.1
 74
0
 49
-6.2999999999999998
 74
0
  0
LTYPE
  5
33
100
AcDbSymbolTableRecord
100
AcDbLinetypeTableRecord
  2
ACAD_ISO10W100
 70
0
  3
ISO dash dot __ . __ . __ . __ . __ . __ . __ . 
 72
65
 73
4
 40
18.0
 49
12.0
 74
0
 49
-2.9500000000000002
 74
0
 49
0.1
 74
0
 49
-2.9500000000000002
 74
0
  0
LTYPE
  5
34
100
AcDbSymbolTableRecord
100
AcDbLinetypeTableRecord
  2
ACAD_ISO04W100
 70
0
  3
ISO long-dash dot ____ . ____ . ____ . ____ . _
 72
65
 73
4
 40
30.0
 49
24.0
 74
0
 49
-2.9500000000000002
 74
0
 49
0.1
 74
0
 49
-2.9500000000000002
 74
0
  0
LTYPE
  5
35
100
AcDbSymbolTableRecord
100
AcDbLinetypeTableRecord
  2
CENTER2
 70
0
  3
Center (.5x) ___ _ ___ _ ___ _ ___ _ ___ _ ___
 72
65
 73
4
 40
28.5750000000000028
 49
19.0500000000000007
 74
0
 49
-3.1749999999999998
 74
0
 49
3.1749999999999998
 74
0
 49
-3.1749999999999998
 74
0
  0
LTYPE
  5
36
100
AcDbSymbolTableRecord
100
AcDbLinetypeTableRecord
  2
ACAD_ISO11W100
 70
0
  3
ISO double-dash dot __ __ . __ __ . __ __ . __ _
 72
65
 73
6
 40
33.0
 49
12.0
 74
0
 49
-3.0
 74
0
 49
12.0
 74
0
 49
-2.9500000000000002
 74
0
 49
0.1
 74
0
 49
-2.9500000000000002
 74
0
  0
LTYPE
  5
37
100
AcDbSymbolTableRecord
100
AcDbLinetypeTableRecord
  2
HIDDEN2
 70
0
  3
Hidden (.5x) _ _ _ _ _ _ _ _ _ _ _ _ _ _ _ _ _ 
 72
65
 73
2
 40
4.7624999999999993
 49
3.1749999999999998
 74
0
 49
-1.5874999999999999
 74
0
  0
LTYPE
  5
38
100
AcDbSymbolTableRecord
100
AcDbLinetypeTableRecord
  2
BORDERX2
 70
0
  3
Border (2x) ____  ____  .  ____  ____  .  ___
 72
65
 73
6
 40
88.8999999999999773
 49
25.3999999999999986
 74
0
 49
-12.6999999999999993
 74
0
 49
25.3999999999999986
 74
0
 49
-12.6499999999999986
 74
0
 49
0.1
 74
0
 49
-12.6499999999999986
 74
0
  0
LTYPE
  5
39
100
AcDbSymbolTableRecord
100
AcDbLinetypeTableRecord
  2
ACAD_ISO05W100
 70
0
  3
ISO long-dash double-dot ____ .. ____ .. ____ . 
 72
65
 73
6
 40
33.0000000000000071
 49
24.0
 74
0
 49
-2.9500000000000002
 74
0
 49
0.1
 74
0
 49
-2.9000000000000004
 74
0
 49
0.1
 74
0
 49
-2.9500000000000002
 74
0
  0
LTYPE
  5
3A
100
AcDbSymbolTableRecord
100
AcDbLinetypeTableRecord
  2
DASHDOTX2
 70
0
  3
Dash dot (2x) ____  .  ____  .  ____  .  ___
 72
65
 73
4
 40
50.7999999999999972
 49
25.3999999999999986
 74
0
 49
-12.6499999999999986
 74
0
 49
0.1
 74
0
 49
-12.6499999999999986
 74
0
  0
LTYPE
  5
3B
100
AcDbSymbolTableRecord
100
AcDbLinetypeTableRecord
  2
HIDDENX2
 70
0
  3
Hidden (2x) ____ ____ ____ ____ ____ ____ ____ 
 72
65
 73
2
 40
19.0499999999999972
 49
12.6999999999999993
 74
0
 49
-6.3499999999999996
 74
0
  0
LTYPE
  5
3C
100
AcDbSymbolTableRecord
100
AcDbLinetypeTableRecord
  2
CENTERX2
 70
0
  3
Center (2x) ________  __  ________  __  _____
 72
65
 73
4
 40
101.6000000000000085
 49
63.5
 74
0
 49
-12.6999999999999993
 74
0
 49
12.6999999999999993
 74
0
 49
-12.6999999999999993
 74
0
  0
LTYPE
  5
3D
100
AcDbSymbolTableRecord
100
AcDbLinetypeTableRecord
  2
BORDER2
 70
0
  3
Border (.5x) __.__.__.__.__.__.__.__.__.__.__.
 72
65
 73
6
 40
22.2250000000000014
 49
6.3499999999999996
 74
0
 49
-3.1749999999999998
 74
0
 49
6.3499999999999996
 74
0
 49
-3.125
 74
0
 49
0.1
 74
0
 49
-3.125
 74
0
  0
LTYPE
  5
3E
100
AcDbSymbolTableRecord
100
AcDbLinetypeTableRecord
  2
DASHDOT2
 70
0
  3
Dash dot (.5x) _._._._._._._._._._._._._._._.
 72
65
 73
4
 40
12.6999999999999993
 49
6.3499999999999996
 74
0
 49
-3.125
 74
0
 49
0.1
 74
0
 49
-3.125
 74
0
  0
LTYPE
  5
3F
100
AcDbSymbolTableRecord
100
AcDbLinetypeTableRecord
  2
ACAD_ISO12W100
 70
0
  3
ISO dash double-dot __ . . __ . . __ . . __ . . 
 72
65
 73
6
 40
21.0
 49
12.0
 74
0
 49
-2.9500000000000002
 74
0
 49
0.1
 74
0
 49
-2.9000000000000004
 74
0
 49
0.1
 74
0
 49
-2.9500000000000002
 74
0
  0
LTYPE
  5
40
100
AcDbSymbolTableRecord
100
AcDbLinetypeTableRecord
  2
ACAD_ISO07W100
 70
0
  3
ISO dot . . . . . . . . . . . . . . . . . . . . 
 72
65
 73
2
 40
3.0
 49
0.1
 74
0
 49
-2.8999999999999999
 74
0
  0
LTYPE
  5
41
100
AcDbSymbolTableRecord
100
AcDbLinetypeTableRecord
  2
HIDDEN
 70
0
  3
Hidden __ __ __ __ __ __ __ __ __ __ __ __ __ __
 72
65
 73
2
 40
9.5249999999999986
 49
6.3499999999999996
 74
0
 49
-3.1749999999999998
 74
0
  0
LTYPE
  5
42
100
AcDbSymbolTableRecord
100
AcDbLinetypeTableRecord
  2
ACAD_ISO06W100
 70
0
  3
ISO long-dash triple-dot ____ ... ____ ... ____
 72
65
 73
8
 40
36.0000000000000071
 49
24.0
 74
0
 49
-2.9500000000000002
 74
0
 49
0.1
 74
0
 49
-2.9000000000000004
 74
0
 49
0.1
 74
0
 49
-2.9000000000000004
 74
0
 49
0.1
 74
0
 49
-2.9500000000000002
 74
0
  0
LTYPE
  5
43
100
AcDbSymbolTableRecord
100
AcDbLinetypeTableRecord
  2
CENTER
 70
0
  3
Center ____ _ ____ _ ____ _ ____ _ ____ _ ____
 72
65
 73
4
 40
50.8000000000000043
 49
31.75
 74
0
 49
-6.3499999999999996
 74
0
 49
6.3499999999999996
 74
0
 49
-6.3499999999999996
 74
0
  0
LTYPE
  5
44
100
AcDbSymbolTableRecord
100
AcDbLinetypeTableRecord
  2
DOTX2
 70
0
  3
Dot (2x) .  .  .  .  .  .  .  .  .  .  .  .  .  .
 72
65
 73
2
 40
12.6999999999999993
 49
0.1
 74
0
 49
-12.5999999999999996
 74
0
  0
LTYPE
  5
45
100
AcDbSymbolTableRecord
100
AcDbLinetypeTableRecord
  2
PHANTOM
 70
0
  3
Phantom ______  __  __  ______  __  __  ______ 
 72
65
 73
6
 40
63.5000000000000071
 49
31.75
 74
0
 49
-6.3499999999999996
 74
0
 49
6.3499999999999996
 74
0
 49
-6.3499999999999996
 74
0
 49
6.3499999999999996
 74
0
 49
-6.3499999999999996
 74
0
  0
LTYPE
  5
46
100
AcDbSymbolTableRecord
100
AcDbLinetypeTableRecord
  2
ACAD_ISO08W100
 70
0
  3
ISO long-dash short-dash ____ __ ____ __ ____ _
 72
65
 73
4
 40
36.0
 49
24.0
 74
0
 49
-3.0
 74
0
 49
6.0
 74
0
 49
-3.0
 74
0
  0
LTYPE
  5
47
100
AcDbSymbolTableRecord
100
AcDbLinetypeTableRecord
  2
DASHEDX2
 70
0
  3
Dashed (2x) ____  ____  ____  ____  ____  ___
 72
65
 73
2
 40
38.0999999999999943
 49
25.3999999999999986
 74
0
 49
-12.6999999999999993
 74
0
  0
LTYPE
  5
48
100
AcDbSymbolTableRecord
100
AcDbLinetypeTableRecord
  2
ACAD_ISO02W100
 70
0
  3
ISO dash __ __ __ __ __ __ __ __ __ __ __ __ __
 72
65
 73
2
 40
15.0
 49
12.0
 74
0
 49
-3.0
 74
0
  0
LTYPE
  5
49
100
AcDbSymbolTableRecord
100
AcDbLinetypeTableRecord
  2
PHANTOM2
 70
0
  3
Phantom (.5x) ___ _ _ ___ _ _ ___ _ _ ___ _ _
 72
65
 73
6
 40
31.7500000000000036
 49
15.875
 74
0
 49
-3.1749999999999998
 74
0
 49
3.1749999999999998
 74
0
 49
-3.1749999999999998
 74
0
 49
3.1749999999999998
 74
0
 49
-3.1749999999999998
 74
0
  0
LTYPE
  5
4A
100
AcDbSymbolTableRecord
100
AcDbLinetypeTableRecord
  2
DASHED2
 70
0
  3
Dashed (.5x) _ _ _ _ _ _ _ _ _ _ _ _ _ _ _ _ _ 
 72
65
 73
2
 40
9.5249999999999986
 49
6.3499999999999996
 74
0
 49
-3.1749999999999998
 74
0
  0
LTYPE
  5
4B
100
AcDbSymbolTableRecord
100
AcDbLinetypeTableRecord
  2
ACAD_ISO09W100
 70
0
  3
ISO long-dash double-short-dash ____ __ __ ____
 72
65
 73
6
 40
45.0
 49
24.0
 74
0
 49
-3.0
 74
0
 49
6.0
 74
0
 49
-3.0
 74
0
 49
6.0
 74
0
 49
-3.0
 74
0
  0
LTYPE
  5
4C
100
AcDbSymbolTableRecord
100
AcDbLinetypeTableRecord
  2
ACAD_ISO13W100
 70
0
  3
ISO double-dash double-dot __ __ . . __ __ . . _
 72
65
 73
8
 40
36.0000000000000071
 49
12.0
 74
0
 49
-3.0
 74
0
 49
12.0
 74
0
 49
-2.9500000000000002
 74
0
 49
0.1
 74
0
 49
-2.9000000000000004
 74
0
 49
0.1
 74
0
 49
-2.9500000000000002
 74
0
  0
LTYPE
  5
4D
100
AcDbSymbolTableRecord
100
AcDbLinetypeTableRecord
  2
DOT2
 70
0
  3
Dot (.5x) ........................................
 72
65
 73
2
 40
3.1749999999999998
 49
0.1
 74
0
 49
-3.0749999999999997
 74
0
  0
LTYPE
  5
4E
100
AcDbSymbolTableRecord
100
AcDbLinetypeTableRecord
  2
DASHED
 70
0
  3
Dashed __ __ __ __ __ __ __ __ __ __ __ __ __ _
 72
65
 73
2
 40
19.0499999999999972
 49
12.6999999999999993
 74
0
 49
-6.3499999999999996
 74
0
  0
LTYPE
  5
4F
100
AcDbSymbolTableRecord
100
AcDbLinetypeTableRecord
  2
ACAD_ISO14W100
 70
0
  3
ISO dash triple-dot __ . . . __ . . . __ . . . _
 72
65
 73
8
 40
24.0000000000000036
 49
12.0
 74
0
 49
-2.9500000000000002
 74
0
 49
0.1
 74
0
 49
-2.9000000000000004
 74
0
 49
0.1
 74
0
 49
-2.9000000000000004
 74
0
 49
0.1
 74
0
 49
-2.9500000000000002
 74
0
  0
LTYPE
  5
15
100
AcDbSymbolTableRecord
100
AcDbLinetypeTableRecord
  2
BYLAYER
 70
0
  3

 72
65
 73
0
 40
0.0
  0
LTYPE
  5
50
100
AcDbSymbolTableRecord
100
AcDbLinetypeTableRecord
  2
PHANTOMX2
 70
0
  3
Phantom (2x) ____________    ____    ____   _
 72
65
 73
6
 40
127.0000000000000142
 49
63.5
 74
0
 49
-12.6999999999999993
 74
0
 49
12.6999999999999993
 74
0
 49
-12.6999999999999993
 74
0
 49
12.6999999999999993
 74
0
 49
-12.6999999999999993
 74
0
  0
LTYPE
  5
14
100
AcDbSymbolTableRecord
100
AcDbLinetypeTableRecord
  2
BYBLOCK
 70
0
  3

 72
65
 73
0
 40
0.0
  0
LTYPE
  5
51
100
AcDbSymbolTableRecord
100
AcDbLinetypeTableRecord
  2
DIVIDEX2
 70
0
  3
Divide (2x) ________  .  .  ________  .  .  _
 72
65
 73
6
 40
63.5
 49
25.3999999999999986
 74
0
 49
-12.6499999999999986
 74
0
 49
0.1
 74
0
 49
-12.5999999999999979
 74
0
 49
0.1
 74
0
 49
-12.6499999999999986
 74
0
  0
LTYPE
  5
52
100
AcDbSymbolTableRecord
100
AcDbLinetypeTableRecord
  2
BORDER
 70
0
  3
Border __ __ . __ __ . __ __ . __ __ . __ __ .
 72
65
 73
6
 40
44.4499999999999957
 49
12.6999999999999993
 74
0
 49
-6.3499999999999996
 74
0
 49
12.6999999999999993
 74
0
 49
-6.2999999999999998
 74
0
 49
0.1
 74
0
 49
-6.2999999999999998
 74
0
  0
LTYPE
  5
53
100
AcDbSymbolTableRecord
100
AcDbLinetypeTableRecord
  2
DIVIDE2
 70
0
  3
Divide (.5x) __..__..__..__..__..__..__..__.._
 72
65
 73
6
 40
15.8749999999999982
 49
6.3499999999999996
 74
0
 49
-3.125
 74
0
 49
0.1
 74
0
 49
-3.0750000000000002
 74
0
 49
0.1
 74
0
 49
-3.125
 74
0
  0
LTYPE
  5
54
100
AcDbSymbolTableRecord
100
AcDbLinetypeTableRecord
  2
DOT
 70
0
  3
Dot . . . . . . . . . . . . . . . . . . . . . . . .
 72
65
 73
2
 40
6.3499999999999996
 49
0.1
 74
0
 49
-6.25
 74
0
  0
LTYPE
  5
55
100
AcDbSymbolTableRecord
100
AcDbLinetypeTableRecord
  2
DASHDOT
 70
0
  3
Dash dot __ . __ . __ . __ . __ . __ . __ . __
 72
65
 73
4
 40
25.4000000000000021
 49
12.6999999999999993
 74
0
 49
-6.2999999999999998
 74
0
 49
0.1
 74
0
 49
-6.2999999999999998
 74
0
  0
LTYPE
  5
56
100
AcDbSymbolTableRecord
100
AcDbLinetypeTableRecord
  2
ACAD_ISO03W100
 70
0
  3
ISO dash space __    __    __    __    __    __
 72
65
 73
2
 40
30.0
 49
12.0
 74
0
 49
-18.0
 74
0
  0
ENDTAB
  0
TABLE
  2
LAYER
  5
2
100
AcDbSymbolTable
 70
1
  0
LAYER
  5
10
100
AcDbSymbolTableRecord
100
AcDbLayerTableRecord
  2
0
 70
0
 62
7
420
16777215
  6
Continuous
370
25
390
F
  0
ENDTAB
  0
TABLE
  2
STYLE
  5
3
100
AcDbSymbolTable
 70
1
  0
STYLE
  5
57
100
AcDbSymbolTableRecord
100
AcDbTextStyleTableRecord
  2
Standard
 70
0
 40
0.0
 41
1.0
 50
0.0
 71
0
 42
2.5
  3

  4

1001
ACAD
1000
txt
1071
0
  0
ENDTAB
  0
TABLE
  2
VIEW
  5
6
100
AcDbSymbolTable
 70
0
  0
ENDTAB
  0
TABLE
  2
UCS
  5
7
100
AcDbSymbolTable
 70
0
  0
ENDTAB
  0
TABLE
  2
APPID
  5
9
100
AcDbSymbolTable
 70
1
  0
APPID
  5
12
100
AcDbSymbolTableRecord
100
AcDbRegAppTableRecord
  2
ACAD
 70
0
  0
APPID
  5
58
100
AcDbSymbolTableRecord
100
AcDbRegAppTableRecord
  2
QCAD
 70
0
  0
ENDTAB
  0
TABLE
  2
DIMSTYLE
  5
A
100
AcDbSymbolTable
 70
1
100
AcDbDimStyleTable
 71
0
  0
DIMSTYLE
105
27
100
AcDbSymbolTableRecord
100
AcDbDimStyleTableRecord
  2
Standard
 41
2.5
 42
0.625
 43
3.75
 44
1.25
 70
0
 73
0
 74
0
 77
1
 78
8
140
2.5
141
2.5
143
0.03937007874016
147
0.625
171
3
172
1
271
2
272
2
274
3
278
44
283
0
284
8
340
57
  0
ENDTAB
  0
TABLE
  2
BLOCK_RECORD
  5
1
100
AcDbSymbolTable
 70
1
  0
BLOCK_RECORD
  5
1F
100
AcDbSymbolTableRecord
100
AcDbBlockTableRecord
  2
*Model_Space
340
22
  0
BLOCK_RECORD
  5
1B
100
AcDbSymbolTableRecord
100
AcDbBlockTableRecord
  2
*Paper_Space
340
1E
  0
BLOCK_RECORD
  5
23
100
AcDbSymbolTableRecord
100
AcDbBlockTableRecord
  2
*Paper_Space0
340
26
  0
ENDTAB
  0
ENDSEC
  0
SECTION
  2
BLOCKS
  0
BLOCK
  5
20
100
AcDbEntity
  8
0
100
AcDbBlockBegin
  2
*Model_Space
 70
0
 10
0.0
 20
0.0
 30
0.0
  3
*Model_Space
  1

  0
ENDBLK
  5
21
100
AcDbEntity
  8
0
100
AcDbBlockEnd
  0
BLOCK
  5
1C
100
AcDbEntity
 67
1
  8
0
100
AcDbBlockBegin
  2
*Paper_Space
 70
0
 10
0.0
 20
0.0
 30
0.0
  3
*Paper_Space
  1

  0
ENDBLK
  5
1D
100
AcDbEntity
 67
1
  8
0
100
AcDbBlockEnd
  0
BLOCK
  5
24
100
AcDbEntity
  8
0
100
AcDbBlockBegin
  2
*Paper_Space0
 70
0
 10
0.0
 20
0.0
 30
0.0
  3
*Paper_Space0
  1

  0
ENDBLK
  5
25
100
AcDbEntity
  8
0
100
AcDbBlockEnd
  0
ENDSEC
  0
SECTION
  2
ENTITIES
  0
LINE
  5
59
100
AcDbEntity
100
AcDbLine
  8
0
 62
256
370
-1
 48
1.0
  6
BYLAYER
 10
18.1869904038038541
 20
3.5329003446482723
 30
0.0
 11
36.1284722222222214
 21
3.5191250000000025
 31
0.0
  0
LINE
  5
5A
100
AcDbEntity
100
AcDbLine
  8
0
 62
256
370
-1
 48
1.0
  6
BYLAYER
 10
62.0074540406405816
 20
3.5453181224260422
 30
0.0
 11
44.0659722222222143
 21
3.5315427777777799
 31
0.0
  0
LINE
  5
5B
100
AcDbEntity
100
AcDbLine
  8
0
 62
256
370
-1
 48
1.0
  6
BYLAYER
 10
36.1284722222222214
 20
3.5191250000000025
 30
0.0
 11
36.1284722222222214
 21
5.0625277777777811
 31
0.0
  0
LINE
  5
5C
100
AcDbEntity
100
AcDbLine
  8
0
 62
256
370
-1
 48
1.0
  6
BYLAYER
 10
36.1284722222222214
 20
5.0625277777777811
 30
0.0
 11
36.1284722222222214
 21
6.6059305555555596
 31
0.0
  0
LINE
  5
5D
100
AcDbEntity
100
AcDbLine
  8
0
 62
256
370
-1
 48
1.0
  6
BYLAYER
 10
36.1284722222222214
 20
6.6059305555555596
 30
0.0
 11
22.0173611111111072
 21
6.6059305555555596
 31
0.0
  0
LINE
  5
5E
100
AcDbEntity
100
AcDbLine
  8
0
 62
256
370
-1
 48
1.0
  6
BYLAYER
 10
22.0173611111111072
 20
6.6059305555555596
 30
0.0
 11
7.9062499999999982
 21
6.6059305555555596
 31
0.0
  0
LINE
  5
5F
100
AcDbEntity
100
AcDbLine
  8
0
 62
256
370
-1
 48
1.0
  6
BYLAYER
 10
7.9062499999999982
 20
6.6059305555555596
 30
0.0
 11
7.9062499999999982
 21
23.8038472222222239
 31
0.0
  0
LINE
  5
60
100
AcDbEntity
100
AcDbLine
  8
0
 62
256
370
-1
 48
1.0
  6
BYLAYER
 10
7.9062499999999982
 20
23.8038472222222239
 30
0.0
 11
7.9062499999999982
 21
41.0017638888888882
 31
0.0
  0
LINE
  5
61
100
AcDbEntity
100
AcDbLine
  8
0
 62
256
370
-1
 48
1.0
  6
BYLAYER
 10
7.9062499999999982
 20
41.0017638888888882
 30
0.0
 11
40.0972222222222214
 21
41.0017638888888882
 31
0.0
  0
LINE
  5
62
100
AcDbEntity
100
AcDbLine
  8
0
 62
256
370
-1
 48
1.0
  6
BYLAYER
 10
40.0972222222222214
 20
41.0017638888888882
 30
0.0
 11
72.2881944444444429
 21
41.0017638888888882
 31
0.0
  0
LINE
  5
63
100
AcDbEntity
100
AcDbLine
  8
0
 62
256
370
-1
 48
1.0
  6
BYLAYER
 10
72.2881944444444429
 20
41.0017638888888882
 30
0.0
 11
72.2881944444444429
 21
23.8038472222222239
 31
0.0
  0
LINE
  5
64
100
AcDbEntity
100
AcDbLine
  8
0
 62
256
370
-1
 48
1.0
  6
BYLAYER
 10
72.2881944444444429
 20
23.8038472222222239
 30
0.0
 11
72.2881944444444429
 21
6.6059305555555596
 31
0.0
  0
LINE
  5
65
100
AcDbEntity
100
AcDbLine
  8
0
 62
256
370
-1
 48
1.0
  6
BYLAYER
 10
72.2881944444444429
 20
6.6059305555555596
 30
0.0
 11
58.1770833333333286
 21
6.6059305555555596
 31
0.0
  0
LINE
  5
66
100
AcDbEntity
100
AcDbLine
  8
0
 62
256
370
-1
 48
1.0
  6
BYLAYER
 10
58.1770833333333286
 20
6.6059305555555596
 30
0.0
 11
44.0659722222222143
 21
6.6059305555555596
 31
0.0
  0
LINE
  5
67
100
AcDbEntity
100
AcDbLine
  8
0
 62
256
370
-1
 48
1.0
  6
BYLAYER
 10
44.0659722222222143
 20
6.6059305555555596
 30
0.0
 11
44.0659722222222143
 21
5.0687366666666662
 31
0.0
  0
LINE
  5
68
100
AcDbEntity
100
AcDbLine
  8
0
 62
256
370
-1
 48
1.0
  6
BYLAYER
 10
44.0659722222222143
 20
5.0687366666666662
 30
0.0
 11
44.0659722222222143
 21
3.5315427777777799
 31
0.0
  0
LINE
  5
69
100
AcDbEntity
100
AcDbLine
  8
0
 62
256
370
-1
 48
1.0
  6
BYLAYER
 10
55.1945127618714579
 20
-3.9878554919303717
 30
0.0
 11
25.0
 21
-4.0
 31
0.0
  0
LINE
  5
6A
100
AcDbEntity
100
AcDbLine
  8
0
 62
256
370
-1
 48
1.0
  6
BYLAYER
 10
15.8470369027574307
 20
-6.1696294154952724
 30
0.0
 11
-16.8055555555555642
 21
-28.0124177777777632
 31
0.0
  0
LINE
  5
6B
100
AcDbEntity
100
AcDbLine
  8
0
 62
256
370
-1
 48
1.0
  6
BYLAYER
 10
18.1869904038038541
 20
3.5329003446482723
 30
0.0
 11
-14.8055555555555642
 21
4.9875822222222386
 31
0.0
  0
LINE
  5
6C
100
AcDbEntity
100
AcDbLine
  8
0
 62
256
370
-1
 48
1.0
  6
BYLAYER
 10
-14.8055555555555642
 20
4.9875822222222386
 30
0.0
 11
-29.5554507004200744
 21
13.4750601755968269
 31
0.0
  0
LINE
  5
6D
100
AcDbEntity
100
AcDbLine
  8
0
 62
256
370
-1
 48
1.0
  6
BYLAYER
 10
62.0074540406405816
 20
3.5453181224260422
 30
0.0
 11
93.920466124033922
 21
6.1224879525895091
 31
0.0
  0
LINE
  5
6E
100
AcDbEntity
100
AcDbLine
  8
0
 62
256
370
-1
 48
1.0
  6
BYLAYER
 10
93.920466124033922
 20
6.1224879525895091
 30
0.0
 11
109.7498951448645101
 21
13.4874779533746008
 31
0.0
  0
LINE
  5
6F
100
AcDbEntity
100
AcDbLine
  8
0
 62
256
370
-1
 48
1.0
  6
BYLAYER
 10
64.3474075416870051
 20
-6.1572116377174595
 30
0.0
 11
97.0
 21
-28.0
 31
0.0
  0
LINE
  5
70
100
AcDbEntity
100
AcDbLine
  8
0
 62
256
370
-1
 48
1.0
  6
BYLAYER
 10
25.0000000000000071
 20
-3.999999999999984
 30
0.0
 11
16.0000000000000213
 21
-39.9999999999999858
 31
0.0
  0
LINE
  5
71
100
AcDbEntity
100
AcDbLine
  8
0
 62
256
370
-1
 48
1.0
  6
BYLAYER
 10
55.1944444444444287
 20
-3.9875822222222297
 30
0.0
 11
64.1944444444444287
 21
-39.9875822222222297
 31
0.0
  0
LINE
  5
72
100
AcDbEntity
100
AcDbLine
  8
0
 62
256
370
-1
 48
1.0
  6
BYLAYER
 10
16.0000000000000213
 20
-39.9999999999999858
 30
0.0
 11
21.0000000000000213
 21
-39.9999999999999858
 31
0.0
  0
LINE
  5
73
100
AcDbEntity
100
AcDbLine
  8
0
 62
256
370
-1
 48
1.0
  6
BYLAYER
 10
64.1944444444444287
 20
-39.9875822222222297
 30
0.0
 11
59.1944444444444287
 21
-39.9875822222222297
 31
0.0
  0
LINE
  5
74
100
AcDbEntity
100
AcDbLine
  8
0
 62
256
370
-1
 48
1.0
  6
BYLAYER
 10
21.0000000000000213
 20
-39.9999999999999858
 30
0.0
 11
25.423035444444416
 21
-35.6343470555555513
 31
0.0
  0
LINE
  5
75
100
AcDbEntity
100
AcDbLine
  8
0
 62
256
370
-1
 48
1.0
  6
BYLAYER
 10
59.1944444444444287
 20
-39.9875822222222297
 30
0.0
 11
54.7714090000000198
 21
-35.621929277777781
 31
0.0
  0
LINE
  5
76
100
AcDbEntity
100
AcDbLine
  8
0
 62
256
370
-1
 48
1.0
  6
BYLAYER
 10
-16.8055555555555642
 20
-28.0124177777777632
 30
0.0
 11
-12.8055555555555642
 21
-43.0124177777777703
 31
0.0
  0
LINE
  5
77
100
AcDbEntity
100
AcDbLine
  8
0
 62
256
370
-1
 48
1.0
  6
BYLAYER
 10
-29.5554507004200744
 20
13.4750601755968269
 30
0.0
 11
-28.220942353375186
 21
28.941769181447679
 31
0.0
  0
LINE
  5
78
100
AcDbEntity
100
AcDbLine
  8
0
 62
256
370
-1
 48
1.0
  6
BYLAYER
 10
109.7498951448645101
 20
13.4874779533746008
 30
0.0
 11
108.4153867978196217
 21
28.9541869592254528
 31
0.0
  0
LINE
  5
79
100
AcDbEntity
100
AcDbLine
  8
0
 62
256
370
-1
 48
1.0
  6
BYLAYER
 10
97.0
 20
-28.0
 30
0.0
 11
93.0
 21
-43.0
 31
0.0
  0
LINE
  5
7A
100
AcDbEntity
100
AcDbLine
  8
0
 62
256
370
-1
 48
1.0
  6
BYLAYER
 10
25.423035444444416
 20
-35.6343470555555513
 30
0.0
 11
29.5071437777777632
 21
-31.5671720555555595
 31
0.0
  0
LINE
  5
7B
100
AcDbEntity
100
AcDbLine
  8
0
 62
256
370
-1
 48
1.0
  6
BYLAYER
 10
54.7714090000000198
 20
-35.621929277777781
 30
0.0
 11
50.6873006666666726
 21
-31.5547542777777892
 31
0.0
  0
LINE
  5
7C
100
AcDbEntity
100
AcDbLine
  8
0
 62
256
370
-1
 48
1.0
  6
BYLAYER
 10
29.5071437777777632
 20
-31.5671720555555595
 30
0.0
 11
27.5295773888888746
 21
-29.5594078888888703
 31
0.0
  0
LINE
  5
7D
100
AcDbEntity
100
AcDbLine
  8
0
 62
256
370
-1
 48
1.0
  6
BYLAYER
 10
50.6873006666666726
 20
-31.5547542777777892
 30
0.0
 11
52.6648670555555611
 21
-29.5469901111111142
 31
0.0
  0
LINE
  5
7E
100
AcDbEntity
100
AcDbLine
  8
0
 62
256
370
-1
 48
1.0
  6
BYLAYER
 10
-12.8055555555555642
 20
-43.0124177777777703
 30
0.0
 11
-6.6874933985716822
 21
-36.9645981099562988
 31
0.0
  0
LINE
  5
7F
100
AcDbEntity
100
AcDbLine
  8
0
 62
256
370
-1
 48
1.0
  6
BYLAYER
 10
-35.1716779374500206
 20
33.8087266335193704
 30
0.0
 11
-42.6093772098888834
 21
39.0772943113262272
 31
0.0
  0
LINE
  5
80
100
AcDbEntity
100
AcDbLine
  8
0
 62
256
370
-1
 48
1.0
  6
BYLAYER
 10
-28.220942353375186
 20
28.941769181447679
 30
0.0
 11
-21.1456344435914545
 21
24.0482198281706516
 31
0.0
  0
LINE
  5
81
100
AcDbEntity
100
AcDbLine
  8
0
 62
256
370
-1
 48
1.0
  6
BYLAYER
 10
-18.8055555555555642
 20
-49.0124177777777703
 30
0.0
 11
-25.2153822874605638
 21
-55.4924869988451661
 31
0.0
  0
LINE
  5
82
100
AcDbEntity
100
AcDbLine
  8
0
 62
256
370
-1
 48
1.0
  6
BYLAYER
 10
115.3661223818944563
 20
33.8211444112971193
 30
0.0
 11
122.8038216543333334
 21
39.0897120891039975
 31
0.0
  0
LINE
  5
83
100
AcDbEntity
100
AcDbLine
  8
0
 62
256
370
-1
 48
1.0
  6
BYLAYER
 10
108.4153867978196217
 20
28.9541869592254528
 30
0.0
 11
101.3400788880358903
 21
24.0606376059484077
 31
0.0
  0
LINE
  5
84
100
AcDbEntity
100
AcDbLine
  8
0
 62
256
370
-1
 48
1.0
  6
BYLAYER
 10
99.0
 20
-49.0
 30
0.0
 11
105.4098267319050137
 21
-55.4800692210674029
 31
0.0
  0
LINE
  5
85
100
AcDbEntity
100
AcDbLine
  8
0
 62
256
370
-1
 48
1.0
  6
BYLAYER
 10
93.0
 20
-43.0
 30
0.0
 11
86.8819378430161322
 21
-36.9521803321785356
 31
0.0
  0
LINE
  5
86
100
AcDbEntity
100
AcDbLine
  8
0
 62
256
370
-1
 48
1.0
  6
BYLAYER
 10
27.5295773888888746
 20
-29.5594078888888703
 30
0.0
 11
25.552010999999986
 21
-27.5516437222221953
 31
0.0
  0
LINE
  5
87
100
AcDbEntity
100
AcDbLine
  8
0
 62
256
370
-1
 48
1.0
  6
BYLAYER
 10
52.6648670555555611
 20
-29.5469901111111142
 30
0.0
 11
54.6424334444444497
 21
-27.5392259444444392
 31
0.0
  0
LINE
  5
88
100
AcDbEntity
100
AcDbLine
  8
0
 62
256
370
-1
 48
1.0
  6
BYLAYER
 10
-42.6093772098888834
 20
39.0772943113262272
 30
0.0
 11
-38.8553612648001874
 21
44.4190139521350744
 31
0.0
  0
LINE
  5
89
100
AcDbEntity
100
AcDbLine
  8
0
 62
256
370
-1
 48
1.0
  6
BYLAYER
 10
-21.1456344435914545
 20
24.0482198281706516
 30
0.0
 11
-17.4100089864023104
 21
29.4028166272381064
 31
0.0
  0
LINE
  5
8A
100
AcDbEntity
100
AcDbLine
  8
0
 62
256
370
-1
 48
1.0
  6
BYLAYER
 10
-25.2153822874605638
 20
-55.4924869988451661
 30
0.0
 11
-20.5908183985716917
 21
-60.1011758877340299
 31
0.0
  0
LINE
  5
8B
100
AcDbEntity
100
AcDbLine
  8
0
 62
256
370
-1
 48
1.0
  6
BYLAYER
 10
-6.6874933985716822
 20
-36.9645981099562988
 30
0.0
 11
-2.0788045096828043
 21
-41.5891619988451993
 31
0.0
  0
LINE
  5
8C
100
AcDbEntity
100
AcDbLine
  8
0
 62
256
370
-1
 48
1.0
  6
BYLAYER
 10
122.8038216543333334
 20
39.0897120891039975
 30
0.0
 11
119.0498057092446231
 21
44.4314317299128305
 31
0.0
  0
LINE
  5
8D
100
AcDbEntity
100
AcDbLine
  8
0
 62
256
370
-1
 48
1.0
  6
BYLAYER
 10
101.3400788880358903
 20
24.0606376059484077
 30
0.0
 11
97.6044534308467462
 21
29.415234405015859
 31
0.0
  0
LINE
  5
8E
100
AcDbEntity
100
AcDbLine
  8
0
 62
256
370
-1
 48
1.0
  6
BYLAYER
 10
105.4098267319050137
 20
-55.4800692210674029
 30
0.0
 11
100.7852628430161133
 21
-60.0887581099562809
 31
0.0
  0
LINE
  5
8F
100
AcDbEntity
100
AcDbLine
  8
0
 62
256
370
-1
 48
1.0
  6
BYLAYER
 10
86.8819378430161322
 20
-36.9521803321785356
 30
0.0
 11
82.2732489541272543
 21
-41.576744221067429
 31
0.0
  0
LINE
  5
90
100
AcDbEntity
100
AcDbLine
  8
0
 62
256
370
-1
 48
1.0
  6
BYLAYER
 10
25.552010999999986
 20
-27.5516437222221953
 30
0.0
 11
30.1765748888888723
 21
-22.9429548333333173
 31
0.0
  0
LINE
  5
91
100
AcDbEntity
100
AcDbLine
  8
0
 62
256
370
-1
 48
1.0
  6
BYLAYER
 10
54.6424334444444497
 20
-27.5392259444444392
 30
0.0
 11
50.0178695555555635
 21
-22.9305370555555577
 31
0.0
  0
LINE
  5
92
100
AcDbEntity
100
AcDbLine
  8
0
 62
256
370
-1
 48
1.0
  6
BYLAYER
 10
-20.5908183985716917
 20
-60.1011758877340299
 30
0.0
 11
-15.9662545096827913
 21
-64.7098647766229362
 31
0.0
  0
LINE
  5
93
100
AcDbEntity
100
AcDbLine
  8
0
 62
256
370
-1
 48
1.0
  6
BYLAYER
 10
-2.0788045096828043
 20
-41.5891619988451993
 30
0.0
 11
2.5298843792060737
 21
-46.2137258877340713
 31
0.0
  0
LINE
  5
94
100
AcDbEntity
100
AcDbLine
  8
0
 62
256
370
-1
 48
1.0
  6
BYLAYER
 10
-17.4100089864023104
 20
29.4028166272381064
 30
0.0
 11
-13.6743835292131806
 21
34.7574134263055328
 31
0.0
  0
LINE
  5
95
100
AcDbEntity
100
AcDbLine
  8
0
 62
256
370
-1
 48
1.0
  6
BYLAYER
 10
-38.8553612648001874
 20
44.4190139521350744
 30
0.0
 11
-35.1013453197114913
 21
49.76073359294395
 31
0.0
  0
LINE
  5
96
100
AcDbEntity
100
AcDbLine
  8
0
 62
256
370
-1
 48
1.0
  6
BYLAYER
 10
97.6044534308467462
 20
29.415234405015859
 30
0.0
 11
93.8688279736576163
 21
34.769831204083296
 31
0.0
  0
LINE
  5
97
100
AcDbEntity
100
AcDbLine
  8
0
 62
256
370
-1
 48
1.0
  6
BYLAYER
 10
119.0498057092446231
 20
44.4314317299128305
 30
0.0
 11
115.2957897641559555
 21
49.7731513707216919
 31
0.0
  0
LINE
  5
98
100
AcDbEntity
100
AcDbLine
  8
0
 62
256
370
-1
 48
1.0
  6
BYLAYER
 10
100.7852628430161133
 20
-60.0887581099562809
 30
0.0
 11
96.160698954127227
 21
-64.6974469988451801
 31
0.0
  0
LINE
  5
99
100
AcDbEntity
100
AcDbLine
  8
0
 62
256
370
-1
 48
1.0
  6
BYLAYER
 10
82.2732489541272543
 20
-41.576744221067429
 30
0.0
 11
77.6645600652383621
 21
-46.2013081099563081
 31
0.0
  0
LINE
  5
9A
100
AcDbEntity
100
AcDbLine
  8
0
 62
256
370
-1
 48
1.0
  6
BYLAYER
 10
30.1765748888888723
 20
-22.9429548333333173
 30
0.0
 11
34.8011387777777728
 21
-18.3342659444444394
 31
0.0
  0
LINE
  5
9B
100
AcDbEntity
100
AcDbLine
  8
0
 62
256
370
-1
 48
1.0
  6
BYLAYER
 10
50.0178695555555635
 20
-22.9305370555555577
 30
0.0
 11
45.393305666666663
 21
-18.321848166666669
 31
0.0
  0
LINE
  5
9C
100
AcDbEntity
100
AcDbLine
  8
0
 62
256
370
-1
 48
1.0
  6
BYLAYER
 10
-13.6743835292131806
 20
34.7574134263055328
 30
0.0
 11
-15.9521067571964394
 21
36.3522924004947754
 31
0.0
  0
LINE
  5
9D
100
AcDbEntity
100
AcDbLine
  8
0
 62
256
370
-1
 48
1.0
  6
BYLAYER
 10
-35.1013453197114913
 20
49.76073359294395
 30
0.0
 11
-32.8236220917282608
 21
48.1658546187546932
 31
0.0
  0
LINE
  5
9E
100
AcDbEntity
100
AcDbLine
  8
0
 62
256
370
-1
 48
1.0
  6
BYLAYER
 10
-15.9662545096827913
 20
-64.7098647766229362
 30
0.0
 11
-14.0000828430161093
 21
-62.7436931099562969
 31
0.0
  0
LINE
  5
9F
100
AcDbEntity
100
AcDbLine
  8
0
 62
256
370
-1
 48
1.0
  6
BYLAYER
 10
2.5298843792060737
 20
-46.2137258877340713
 30
0.0
 11
0.5637127125394201
 21
-48.1798975544007249
 31
0.0
  0
LINE
  5
A0
100
AcDbEntity
100
AcDbLine
  8
0
 62
256
370
-1
 48
1.0
  6
BYLAYER
 10
93.8688279736576163
 20
34.769831204083296
 30
0.0
 11
96.1465512016408752
 21
36.3647101782725386
 31
0.0
  0
LINE
  5
A1
100
AcDbEntity
100
AcDbLine
  8
0
 62
256
370
-1
 48
1.0
  6
BYLAYER
 10
115.2957897641559555
 20
49.7731513707216919
 30
0.0
 11
113.0180665361726966
 21
48.1782723965324422
 31
0.0
  0
LINE
  5
A2
100
AcDbEntity
100
AcDbLine
  8
0
 62
256
370
-1
 48
1.0
  6
BYLAYER
 10
96.160698954127227
 20
-64.6974469988451801
 30
0.0
 11
94.1945272874605735
 21
-62.7312753321785337
 31
0.0
  0
LINE
  5
A3
100
AcDbEntity
100
AcDbLine
  8
0
 62
256
370
-1
 48
1.0
  6
BYLAYER
 10
77.6645600652383621
 20
-46.2013081099563081
 30
0.0
 11
79.6307317319050014
 21
-48.1674797766229545
 31
0.0
  0
LINE
  5
A4
100
AcDbEntity
100
AcDbLine
  8
0
 62
256
370
-1
 48
1.0
  6
BYLAYER
 10
34.8011387777777728
 20
-18.3342659444444394
 30
0.0
 11
36.7673104444444334
 21
-20.3004376111110716
 31
0.0
  0
LINE
  5
A5
100
AcDbEntity
100
AcDbLine
  8
0
 62
256
370
-1
 48
1.0
  6
BYLAYER
 10
45.393305666666663
 20
-18.321848166666669
 30
0.0
 11
43.4271340000000095
 21
-20.2880198333333155
 31
0.0
  0
LINE
  5
A6
100
AcDbEntity
100
AcDbLine
  8
0
 62
256
370
-1
 48
1.0
  6
BYLAYER
 10
-15.9521067571964394
 20
36.3522924004947754
 30
0.0
 11
-18.7348837816224645
 21
32.4028210640012446
 31
0.0
  0
LINE
  5
A7
100
AcDbEntity
100
AcDbLine
  8
0
 62
256
370
-1
 48
1.0
  6
BYLAYER
 10
-32.8236220917282608
 20
48.1658546187546932
 30
0.0
 11
-35.5831453658990924
 21
44.2001008310408281
 31
0.0
  0
LINE
  5
A8
100
AcDbEntity
100
AcDbLine
  8
0
 62
256
370
-1
 48
1.0
  6
BYLAYER
 10
-14.0000828430161093
 20
-62.7436931099562969
 30
0.0
 11
-17.4063286763494673
 21
-59.3173742210673822
 31
0.0
  0
LINE
  5
A9
100
AcDbEntity
100
AcDbLine
  8
0
 62
256
370
-1
 48
1.0
  6
BYLAYER
 10
0.5637127125394201
 20
-48.1798975544007249
 30
0.0
 11
-2.8626061763494519
 21
-44.7736517210673952
 31
0.0
  0
LINE
  5
AA
100
AcDbEntity
100
AcDbLine
  8
0
 62
256
370
-1
 48
1.0
  6
BYLAYER
 10
96.1465512016408752
 20
36.3647101782725386
 30
0.0
 11
98.9293282260669145
 21
32.4152388417790149
 31
0.0
  0
LINE
  5
AB
100
AcDbEntity
100
AcDbLine
  8
0
 62
256
370
-1
 48
1.0
  6
BYLAYER
 10
113.0180665361726966
 20
48.1782723965324422
 30
0.0
 11
115.7775898103435424
 21
44.2125186088185771
 31
0.0
  0
LINE
  5
AC
100
AcDbEntity
100
AcDbLine
  8
0
 62
256
370
-1
 48
1.0
  6
BYLAYER
 10
94.1945272874605735
 20
-62.7312753321785337
 30
0.0
 11
97.6007731207939031
 21
-59.3049564432896332
 31
0.0
  0
LINE
  5
AD
100
AcDbEntity
100
AcDbLine
  8
0
 62
256
370
-1
 48
1.0
  6
BYLAYER
 10
79.6307317319050014
 20
-48.1674797766229545
 30
0.0
 11
83.0570506207939019
 21
-44.7612339432896249
 31
0.0
  0
LINE
  5
AE
100
AcDbEntity
100
AcDbLine
  8
0
 62
256
370
-1
 48
1.0
  6
BYLAYER
 10
36.7673104444444334
 20
-20.3004376111110716
 30
0.0
 11
33.3610646111111038
 21
-23.7267564999999792
 31
0.0
  0
LINE
  5
AF
100
AcDbEntity
100
AcDbLine
  8
0
 62
256
370
-1
 48
1.0
  6
BYLAYER
 10
43.4271340000000095
 20
-20.2880198333333155
 30
0.0
 11
46.8333798333333391
 21
-23.7143387222222266
 31
0.0
  0
SPLINE
  5
B0
  8
0
 62
256
370
-1
 48
1.0
  6
BYLAYER
100
AcDbEntity
100
AcDbSpline
 70
8
 71
3
 72
8
 73
4
 74
0
 40
0.0
 40
0.0
 40
0.0
 40
0.0
 40
1.0
 40
1.0
 40
1.0
 40
1.0
 10
-18.7348837816224645
 20
32.4028210640012446
 30
0.0
 10
-20.2648110048574424
 20
30.2309057153095857
 30
0.0
 10
-21.7047698048001152
 20
28.4223275723844928
 30
0.0
 10
-21.9340658766264696
 20
28.3818964883510354
 30
0.0
  0
SPLINE
  5
B1
  8
0
 62
256
370
-1
 48
1.0
  6
BYLAYER
100
AcDbEntity
100
AcDbSpline
 70
8
 71
3
 72
8
 73
4
 74
0
 40
0.0
 40
0.0
 40
0.0
 40
0.0
 40
1.0
 40
1.0
 40
1.0
 40
1.0
 10
-35.5831453658990924
 20
44.2001008310408281
 30
0.0
 10
-37.100812263867688
 20
42.0196007101767322
 30
0.0
 10
-38.3078248837496389
 20
40.047911895975929
 30
0.0
 10
-38.2673937997161815
 20
39.8186158241496031
 30
0.0
  0
SPLINE
  5
B2
  8
0
 62
256
370
-1
 48
1.0
  6
BYLAYER
100
AcDbEntity
100
AcDbSpline
 70
8
 71
3
 72
8
 73
4
 74
0
 40
0.0
 40
0.0
 40
0.0
 40
0.0
 40
1.0
 40
1.0
 40
1.0
 40
1.0
 10
-17.4063286763494673
 20
-59.3173742210673822
 30
0.0
 10
-19.2795786763494803
 20
-57.4335408877340399
 30
0.0
 10
-20.8106342319049915
 20
-55.7014019988451565
 30
0.0
 10
-20.8106342319049915
 20
-55.4685686655118246
 30
0.0
  0
SPLINE
  5
B3
  8
0
 62
256
370
-1
 48
1.0
  6
BYLAYER
100
AcDbEntity
100
AcDbSpline
 70
8
 71
3
 72
8
 73
4
 74
0
 40
0.0
 40
0.0
 40
0.0
 40
0.0
 40
1.0
 40
1.0
 40
1.0
 40
1.0
 10
-2.8626061763494519
 20
-44.7736517210673952
 30
0.0
 10
-4.7464395096828085
 20
-42.9004017210674107
 30
0.0
 10
-6.4785783985717202
 20
-41.3693461655118568
 30
0.0
 10
-6.7114117319050379
 20
-41.3693461655118568
 30
0.0
  0
SPLINE
  5
B4
  8
0
 62
256
370
-1
 48
1.0
  6
BYLAYER
100
AcDbEntity
100
AcDbSpline
 70
8
 71
3
 72
8
 73
4
 74
0
 40
0.0
 40
0.0
 40
0.0
 40
0.0
 40
1.0
 40
1.0
 40
1.0
 40
1.0
 10
98.9293282260669145
 20
32.4152388417790149
 30
0.0
 10
100.4592554493018781
 20
30.2433234930873454
 30
0.0
 10
101.899214249244551
 20
28.4347453501622525
 30
0.0
 10
102.1285103210709053
 20
28.3943142661287951
 30
0.0
  0
SPLINE
  5
B5
  8
0
 62
256
370
-1
 48
1.0
  6
BYLAYER
100
AcDbEntity
100
AcDbSpline
 70
8
 71
3
 72
8
 73
4
 74
0
 40
0.0
 40
0.0
 40
0.0
 40
0.0
 40
1.0
 40
1.0
 40
1.0
 40
1.0
 10
115.7775898103435424
 20
44.2125186088185771
 30
0.0
 10
117.2952567083121238
 20
42.0320184879544954
 30
0.0
 10
118.5022693281940604
 20
40.0603296737536994
 30
0.0
 10
118.4618382441606173
 20
39.8310336019273521
 30
0.0
  0
SPLINE
  5
B6
  8
0
 62
256
370
-1
 48
1.0
  6
BYLAYER
100
AcDbEntity
100
AcDbSpline
 70
8
 71
3
 72
8
 73
4
 74
0
 40
0.0
 40
0.0
 40
0.0
 40
0.0
 40
1.0
 40
1.0
 40
1.0
 40
1.0
 10
97.6007731207939031
 20
-59.3049564432896332
 30
0.0
 10
99.4740231207939019
 20
-57.4211231099562909
 30
0.0
 10
101.0050786763494557
 20
-55.6889842210673862
 30
0.0
 10
101.0050786763494557
 20
-55.4561508877340614
 30
0.0
  0
SPLINE
  5
B7
  8
0
 62
256
370
-1
 48
1.0
  6
BYLAYER
100
AcDbEntity
100
AcDbSpline
 70
8
 71
3
 72
8
 73
4
 74
0
 40
0.0
 40
0.0
 40
0.0
 40
0.0
 40
1.0
 40
1.0
 40
1.0
 40
1.0
 10
83.0570506207939019
 20
-44.7612339432896249
 30
0.0
 10
84.9408839541272442
 20
-42.8879839432896404
 30
0.0
 10
86.673022843016156
 20
-41.3569283877340865
 30
0.0
 10
86.9058561763494737
 20
-41.3569283877340865
 30
0.0
  0
SPLINE
  5
B8
  8
0
 62
256
370
-1
 48
1.0
  6
BYLAYER
100
AcDbEntity
100
AcDbSpline
 70
8
 71
3
 72
8
 73
4
 74
0
 40
0.0
 40
0.0
 40
0.0
 40
0.0
 40
1.0
 40
1.0
 40
1.0
 40
1.0
 10
33.3610646111111038
 20
-23.7267564999999792
 30
0.0
 10
31.4878146111110837
 20
-25.6105898333333073
 30
0.0
 10
29.9567590555555299
 20
-27.3427287222222191
 30
0.0
 10
29.9567590555555299
 20
-27.5755620555555439
 30
0.0
  0
SPLINE
  5
B9
  8
0
 62
256
370
-1
 48
1.0
  6
BYLAYER
100
AcDbEntity
100
AcDbSpline
 70
8
 71
3
 72
8
 73
4
 74
0
 40
0.0
 40
0.0
 40
0.0
 40
0.0
 40
1.0
 40
1.0
 40
1.0
 40
1.0
 10
46.8333798333333391
 20
-23.7143387222222266
 30
0.0
 10
48.7066298333333521
 20
-25.5981720555555512
 30
0.0
 10
50.2376853888889059
 20
-27.3303109444444523
 30
0.0
 10
50.2376853888889059
 20
-27.5631442777777806
 30
0.0
  0
SPLINE
  5
BA
  8
0
 62
256
370
-1
 48
1.0
  6
BYLAYER
100
AcDbEntity
100
AcDbSpline
 70
8
 71
3
 72
8
 73
4
 74
0
 40
0.0
 40
0.0
 40
0.0
 40
0.0
 40
1.0
 40
1.0
 40
1.0
 40
1.0
 10
-21.9340658766264696
 20
28.3818964883510354
 30
0.0
 10
-22.1623440128611762
 20
28.3416448938269987
 30
0.0
 10
-24.1353936446432655
 20
29.5516415443462925
 30
0.0
 10
-26.3185175260040651
 20
31.0707801902440188
 30
0.0
  0
SPLINE
  5
BB
  8
0
 62
256
370
-1
 48
1.0
  6
BYLAYER
100
AcDbEntity
100
AcDbSpline
 70
8
 71
3
 72
8
 73
4
 74
0
 40
0.0
 40
0.0
 40
0.0
 40
0.0
 40
1.0
 40
1.0
 40
1.0
 40
1.0
 10
-38.2673937997161815
 20
39.8186158241496031
 30
0.0
 10
-38.227142205192159
 20
39.5903376879148396
 30
0.0
 10
-36.4152945636727665
 20
38.1501207363190531
 30
0.0
 10
-34.2410988453712477
 20
36.6182313521443632
 30
0.0
  0
SPLINE
  5
BC
  8
0
 62
256
370
-1
 48
1.0
  6
BYLAYER
100
AcDbEntity
100
AcDbSpline
 70
8
 71
3
 72
8
 73
4
 74
0
 40
0.0
 40
0.0
 40
0.0
 40
0.0
 40
1.0
 40
1.0
 40
1.0
 40
1.0
 10
-20.8106342319049915
 20
-55.4685686655118246
 30
0.0
 10
-20.8106342319050484
 20
-55.2367689710673631
 30
0.0
 10
-19.2764036763494673
 20
-53.5038081099562675
 30
0.0
 10
-17.4012486763494749
 20
-51.6176464432896154
 30
0.0
  0
SPLINE
  5
BD
  8
0
 62
256
370
-1
 48
1.0
  6
BYLAYER
100
AcDbEntity
100
AcDbSpline
 70
8
 71
3
 72
8
 73
4
 74
0
 40
0.0
 40
0.0
 40
0.0
 40
0.0
 40
1.0
 40
1.0
 40
1.0
 40
1.0
 10
-6.7114117319050379
 20
-41.3693461655118568
 30
0.0
 10
-6.9432114263494711
 20
-41.3693461655118426
 30
0.0
 10
-8.6761722874605951
 20
-42.9035767210674095
 30
0.0
 10
-10.5623339541272614
 20
-44.7787317210674018
 30
0.0
  0
SPLINE
  5
BE
  8
0
 62
256
370
-1
 48
1.0
  6
BYLAYER
100
AcDbEntity
100
AcDbSpline
 70
8
 71
3
 72
8
 73
4
 74
0
 40
0.0
 40
0.0
 40
0.0
 40
0.0
 40
1.0
 40
1.0
 40
1.0
 40
1.0
 10
102.1285103210709053
 20
28.3943142661287951
 30
0.0
 10
102.3567884573056261
 20
28.3540626716047583
 30
0.0
 10
104.3298380890877013
 20
29.5640593221240451
 30
0.0
 10
106.5129619704485151
 20
31.0831979680217714
 30
0.0
  0
SPLINE
  5
BF
  8
0
 62
256
370
-1
 48
1.0
  6
BYLAYER
100
AcDbEntity
100
AcDbSpline
 70
8
 71
3
 72
8
 73
4
 74
0
 40
0.0
 40
0.0
 40
0.0
 40
0.0
 40
1.0
 40
1.0
 40
1.0
 40
1.0
 10
118.4618382441606173
 20
39.8310336019273521
 30
0.0
 10
118.421586649636609
 20
39.60275546569261
 30
0.0
 10
116.6097390081172023
 20
38.1625385140968234
 30
0.0
 10
114.4355432898156835
 20
36.6306491299221122
 30
0.0
  0
SPLINE
  5
C0
  8
0
 62
256
370
-1
 48
1.0
  6
BYLAYER
100
AcDbEntity
100
AcDbSpline
 70
8
 71
3
 72
8
 73
4
 74
0
 40
0.0
 40
0.0
 40
0.0
 40
0.0
 40
1.0
 40
1.0
 40
1.0
 40
1.0
 10
101.0050786763494557
 20
-55.4561508877340614
 30
0.0
 10
101.0050786763494699
 20
-55.2243511932896141
 30
0.0
 10
99.470848120793903
 20
-53.4913903321785043
 30
0.0
 10
97.5956931207938965
 20
-51.6052286655118522
 30
0.0
  0
SPLINE
  5
C1
  8
0
 62
256
370
-1
 48
1.0
  6
BYLAYER
100
AcDbEntity
100
AcDbSpline
 70
8
 71
3
 72
8
 73
4
 74
0
 40
0.0
 40
0.0
 40
0.0
 40
0.0
 40
1.0
 40
1.0
 40
1.0
 40
1.0
 10
86.9058561763494737
 20
-41.3569283877340865
 30
0.0
 10
87.1376558707939211
 20
-41.3569283877340723
 30
0.0
 10
88.8706167319050309
 20
-42.8911589432896392
 30
0.0
 10
90.7567783985716829
 20
-44.7663139432896386
 30
0.0
  0
SPLINE
  5
C2
  8
0
 62
256
370
-1
 48
1.0
  6
BYLAYER
100
AcDbEntity
100
AcDbSpline
 70
8
 71
3
 72
8
 73
4
 74
0
 40
0.0
 40
0.0
 40
0.0
 40
0.0
 40
1.0
 40
1.0
 40
1.0
 40
1.0
 10
29.9567590555555299
 20
-27.5755620555555439
 30
0.0
 10
29.956759055555537
 20
-27.8073617499999983
 30
0.0
 10
31.4909896111110825
 20
-29.5403226111111081
 30
0.0
 10
33.3661446111110962
 20
-31.4264842777777602
 30
0.0
  0
SPLINE
  5
C3
  8
0
 62
256
370
-1
 48
1.0
  6
BYLAYER
100
AcDbEntity
100
AcDbSpline
 70
8
 71
3
 72
8
 73
4
 74
0
 40
0.0
 40
0.0
 40
0.0
 40
0.0
 40
1.0
 40
1.0
 40
1.0
 40
1.0
 10
50.2376853888889059
 20
-27.5631442777777806
 30
0.0
 10
50.2376853888889059
 20
-27.7949439722222351
 30
0.0
 10
48.7034548333333532
 20
-29.5279048333333378
 30
0.0
 10
46.8282998333333467
 20
-31.4140664999999899
 30
0.0
  0
LINE
  5
C4
100
AcDbEntity
100
AcDbLine
  8
0
 62
256
370
-1
 48
1.0
  6
BYLAYER
 10
-26.3185175260040651
 20
31.0707801902440188
 30
0.0
 11
-30.2879780272050922
 21
33.8328380283156918
 31
0.0
  0
LINE
  5
C5
100
AcDbEntity
100
AcDbLine
  8
0
 62
256
370
-1
 48
1.0
  6
BYLAYER
 10
-34.2410988453712477
 20
36.6182313521443632
 30
0.0
 11
-30.2879780272050922
 21
33.8328380283156918
 31
0.0
  0
LINE
  5
C6
100
AcDbEntity
100
AcDbLine
  8
0
 62
256
370
-1
 48
1.0
  6
BYLAYER
 10
-17.4012486763494749
 20
-51.6176464432896154
 30
0.0
 11
-13.9918631207939157
 21
-48.1881172766229469
 31
0.0
  0
LINE
  5
C7
100
AcDbEntity
100
AcDbLine
  8
0
 62
256
370
-1
 48
1.0
  6
BYLAYER
 10
-10.5623339541272614
 20
-44.7787317210674018
 30
0.0
 11
-13.9918631207939157
 21
-48.1881172766229469
 31
0.0
  0
LINE
  5
C8
100
AcDbEntity
100
AcDbLine
  8
0
 62
256
370
-1
 48
1.0
  6
BYLAYER
 10
106.5129619704485151
 20
31.0831979680217714
 30
0.0
 11
110.482422471649528
 21
33.845255806093455
 31
0.0
  0
LINE
  5
C9
100
AcDbEntity
100
AcDbLine
  8
0
 62
256
370
-1
 48
1.0
  6
BYLAYER
 10
114.4355432898156835
 20
36.6306491299221122
 30
0.0
 11
110.482422471649528
 21
33.845255806093455
 31
0.0
  0
LINE
  5
CA
100
AcDbEntity
100
AcDbLine
  8
0
 62
256
370
-1
 48
1.0
  6
BYLAYER
 10
97.5956931207938965
 20
-51.6052286655118522
 30
0.0
 11
94.1863075652383515
 21
-48.1756994988451908
 31
0.0
  0
LINE
  5
CB
100
AcDbEntity
100
AcDbLine
  8
0
 62
256
370
-1
 48
1.0
  6
BYLAYER
 10
90.7567783985716829
 20
-44.7663139432896386
 30
0.0
 11
94.1863075652383515
 21
-48.1756994988451908
 31
0.0
  0
LINE
  5
CC
100
AcDbEntity
100
AcDbLine
  8
0
 62
256
370
-1
 48
1.0
  6
BYLAYER
 10
33.3661446111110962
 20
-31.4264842777777602
 30
0.0
 11
36.7755301666666483
 21
-34.8560134444444287
 31
0.0
  0
LINE
  5
CD
100
AcDbEntity
100
AcDbLine
  8
0
 62
256
370
-1
 48
1.0
  6
BYLAYER
 10
46.8282998333333467
 20
-31.4140664999999899
 30
0.0
 11
43.4189142777777874
 21
-34.8435956666666584
 31
0.0
  0
LINE
  5
CE
100
AcDbEntity
100
AcDbLine
  8
0
 62
256
370
-1
 48
1.0
  6
BYLAYER
 10
36.7755301666666483
 20
-34.8560134444444287
 30
0.0
 11
30.6192051666666387
 21
-41.0260967777777665
 31
0.0
  0
LINE
  5
CF
100
AcDbEntity
100
AcDbLine
  8
0
 62
256
370
-1
 48
1.0
  6
BYLAYER
 10
43.4189142777777874
 20
-34.8435956666666584
 30
0.0
 11
49.575239277777797
 21
-41.0136789999999962
 31
0.0
  0
LINE
  5
D0
100
AcDbEntity
100
AcDbLine
  8
0
 62
256
370
-1
 48
1.0
  6
BYLAYER
 10
30.6192051666666387
 20
-41.0260967777777665
 30
0.0
 11
24.9999999999999929
 21
-46.9999999999999858
 31
0.0
  0
LINE
  5
D1
100
AcDbEntity
100
AcDbLine
  8
0
 62
256
370
-1
 48
1.0
  6
BYLAYER
 10
49.575239277777797
 20
-41.0136789999999962
 30
0.0
 11
55.1944444444444429
 21
-46.9875822222222226
 31
0.0
  0
LINE
  5
D2
100
AcDbEntity
100
AcDbLine
  8
0
 62
256
370
-1
 48
1.0
  6
BYLAYER
 10
24.9999999999999929
 20
-46.9999999999999858
 30
0.0
 11
6.0000000000000071
 21
-47.0
 31
0.0
  0
LINE
  5
D3
100
AcDbEntity
100
AcDbLine
  8
0
 62
256
370
-1
 48
1.0
  6
BYLAYER
 10
55.1944444444444429
 20
-46.9875822222222226
 30
0.0
 11
74.1944444444444287
 21
-46.9875822222222297
 31
0.0
  0
LINE
  5
D4
100
AcDbEntity
100
AcDbLine
  8
0
 62
256
370
-1
 48
1.0
  6
BYLAYER
 10
64.6893611111111113
 20
23.9114444444444452
 30
0.0
 11
64.5729444444444312
 21
34.1642250000000018
 31
0.0
  0
LINE
  5
D5
100
AcDbEntity
100
AcDbLine
  8
0
 62
256
370
-1
 48
1.0
  6
BYLAYER
 10
64.5729444444444312
 20
34.1642250000000018
 30
0.0
 11
39.9878611111111084
 21
34.2781722222222243
 31
0.0
  0
LINE
  5
D6
100
AcDbEntity
100
AcDbLine
  8
0
 62
256
370
-1
 48
1.0
  6
BYLAYER
 10
39.9878611111111084
 20
34.2781722222222243
 30
0.0
 11
15.402777777777775
 21
34.3921194444444467
 31
0.0
  0
LINE
  5
D7
100
AcDbEntity
100
AcDbLine
  8
0
 62
256
370
-1
 48
1.0
  6
BYLAYER
 10
15.402777777777775
 20
34.3921194444444467
 30
0.0
 11
15.402777777777775
 21
24.0253916666666676
 31
0.0
  0
LINE
  5
D8
100
AcDbEntity
100
AcDbLine
  8
0
 62
256
370
-1
 48
1.0
  6
BYLAYER
 10
15.402777777777775
 20
24.0253916666666676
 30
0.0
 11
15.402777777777775
 21
13.6590166666666697
 31
0.0
  0
LINE
  5
D9
100
AcDbEntity
100
AcDbLine
  8
0
 62
256
370
-1
 48
1.0
  6
BYLAYER
 10
15.402777777777775
 20
13.6590166666666697
 30
0.0
 11
40.1053361111111073
 21
13.6590166666666697
 31
0.0
  0
LINE
  5
DA
100
AcDbEntity
100
AcDbLine
  8
0
 62
256
370
-1
 48
1.0
  6
BYLAYER
 10
40.1053361111111073
 20
13.6590166666666697
 30
0.0
 11
64.8078944444444289
 21
13.6590166666666697
 31
0.0
  0
LINE
  5
DB
100
AcDbEntity
100
AcDbLine
  8
0
 62
256
370
-1
 48
1.0
  6
BYLAYER
 10
64.8078944444444289
 20
13.6590166666666697
 30
0.0
 11
64.6895269166666509
 21
23.9114444444444452
 31
0.0
  0
LINE
  5
DC
100
AcDbEntity
100
AcDbLine
  8
0
 62
256
370
-1
 48
1.0
  6
BYLAYER
 10
64.6895269166666509
 20
23.9114444444444452
 30
0.0
 11
64.6893611111111113
 21
23.9114444444444452
 31
0.0
  0
ARC
  5
DD
100
AcDbEntity
  8
0
 62
256
370
-1
 48
1.0
  6
BYLAYER
100
AcDbCircle
 10
29.0878469103401116
 20
24.6478691374922114
 30
0.0
 40
4.079685350992424
100
AcDbArc
 50
201.4899542436139086
 51
238.5586297779632048
  0
SPLINE
  5
DE
  8
0
 62
256
370
-1
 48
1.0
  6
BYLAYER
100
AcDbEntity
100
AcDbSpline
 70
8
 71
3
 72
8
 73
4
 74
0
 40
0.0
 40
0.0
 40
0.0
 40
0.0
 40
1.0
 40
1.0
 40
1.0
 40
1.0
 10
25.291773888888887
 20
23.1533250000000059
 30
0.0
 10
24.7465205555555556
 20
24.4583205555555594
 30
0.0
 10
24.7311747222222209
 20
24.9228583333333376
 30
0.0
 10
25.2011241111111062
 20
25.9003350000000054
 30
0.0
  0
ARC
  5
DF
100
AcDbEntity
  8
0
 62
256
370
-1
 48
1.0
  6
BYLAYER
100
AcDbCircle
 10
28.5068626215922123
 20
24.509708461146495
 30
0.0
 40
3.5863281040977637
100
AcDbArc
 50
39.6849071925204271
 51
157.184947793838603
  0
SPLINE
  5
E0
  8
0
 62
256
370
-1
 48
1.0
  6
BYLAYER
100
AcDbEntity
100
AcDbSpline
 70
8
 71
3
 72
8
 73
4
 74
0
 40
0.0
 40
0.0
 40
0.0
 40
0.0
 40
1.0
 40
1.0
 40
1.0
 40
1.0
 10
31.266785222222218
 20
26.7998125000000051
 30
0.0
 10
33.7220479999999938
 20
24.1643861111111171
 30
0.0
 10
30.361910222222221
 20
19.7700097222222269
 30
0.0
 10
26.9600741111111084
 20
21.1670097222222289
 30
0.0
  0
LINE
  5
E1
100
AcDbEntity
100
AcDbLine
  8
0
 62
256
370
-1
 48
1.0
  6
BYLAYER
 10
26.9600741111111084
 20
21.1670097222222289
 30
0.0
 11
26.9597777777777772
 21
21.1671861111111141
 31
0.0
  0
SPLINE
  5
E2
  8
0
 62
256
370
-1
 48
1.0
  6
BYLAYER
100
AcDbEntity
100
AcDbSpline
 70
8
 71
3
 72
8
 73
4
 74
0
 40
0.0
 40
0.0
 40
0.0
 40
0.0
 40
1.0
 40
1.0
 40
1.0
 40
1.0
 10
50.3979805555555558
 20
21.1519813888888919
 30
0.0
 10
48.3744119444444465
 20
21.9685913888888926
 30
0.0
 10
47.3857522222222229
 20
24.9027147222222247
 30
0.0
 10
48.6009305555555571
 20
26.4856286111111139
 30
0.0
  0
ARC
  5
E3
100
AcDbEntity
  8
0
 62
256
370
-1
 48
1.0
  6
BYLAYER
100
AcDbCircle
 10
52.3637926483750888
 20
23.3041011853888413
 30
0.0
 40
4.927600622027029
100
AcDbArc
 50
95.2141060773429899
 51
139.7852359887777425
  0
SPLINE
  5
E4
  8
0
 62
256
370
-1
 48
1.0
  6
BYLAYER
100
AcDbEntity
100
AcDbSpline
 70
8
 71
3
 72
8
 73
4
 74
0
 40
0.0
 40
0.0
 40
0.0
 40
0.0
 40
1.0
 40
1.0
 40
1.0
 40
1.0
 10
51.9159833333333296
 20
28.211311666666667
 30
0.0
 10
53.1369824999999949
 20
28.211311666666667
 30
0.0
 10
54.9495899999999935
 20
26.6506227777777802
 30
0.0
 10
55.1901491666666644
 20
25.3921586111111139
 30
0.0
  0
SPLINE
  5
E5
  8
0
 62
256
370
-1
 48
1.0
  6
BYLAYER
100
AcDbEntity
100
AcDbSpline
 70
8
 71
3
 72
8
 73
4
 74
0
 40
0.0
 40
0.0
 40
0.0
 40
0.0
 40
1.0
 40
1.0
 40
1.0
 40
1.0
 10
55.1901491666666644
 20
25.3921586111111139
 30
0.0
 10
55.4905253333333377
 20
23.8208511111111143
 30
0.0
 10
54.4222225000000037
 20
21.6558891666666682
 30
0.0
 10
53.0980358333333342
 20
21.1524752777777785
 30
0.0
  0
SPLINE
  5
E6
  8
0
 62
256
370
-1
 48
1.0
  6
BYLAYER
100
AcDbEntity
100
AcDbSpline
 70
8
 71
3
 72
8
 73
4
 74
0
 40
0.0
 40
0.0
 40
0.0
 40
0.0
 40
1.0
 40
1.0
 40
1.0
 40
1.0
 10
53.0980358333333342
 20
21.1524752777777785
 30
0.0
 10
51.7626661111111162
 20
20.6447575000000008
 30
0.0
 10
51.6552100000000038
 20
20.6447575000000008
 30
0.0
 10
50.3979805555555629
 20
21.1521225000000044
 30
0.0
  0
LINE
  5
E7
100
AcDbEntity
100
AcDbLine
  8
0
 62
256
370
-1
 48
1.0
  6
BYLAYER
 10
50.3979805555555629
 20
21.1521225000000044
 30
0.0
 11
50.3979805555555558
 21
21.1519813888888919
 31
0.0
  0
SPLINE
  5
E8
  8
0
 62
256
370
-1
 48
1.0
  6
BYLAYER
100
AcDbEntity
100
AcDbSpline
 70
8
 71
3
 72
8
 73
4
 74
0
 40
0.0
 40
0.0
 40
0.0
 40
0.0
 40
1.0
 40
1.0
 40
1.0
 40
1.0
 10
37.1088416666666632
 20
-30.75574083333332
 30
0.0
 10
35.6000111111111082
 20
-29.2333636111111019
 30
0.0
 10
34.3655005555555562
 20
-27.7889855555555414
 30
0.0
 10
34.3655005555555562
 20
-27.545956944444427
 30
0.0
  0
SPLINE
  5
E9
  8
0
 62
256
370
-1
 48
1.0
  6
BYLAYER
100
AcDbEntity
100
AcDbSpline
 70
8
 71
3
 72
8
 73
4
 74
0
 40
0.0
 40
0.0
 40
0.0
 40
0.0
 40
1.0
 40
1.0
 40
1.0
 40
1.0
 10
34.3655005555555562
 20
-27.545956944444427
 30
0.0
 10
34.3655005555555562
 20
-27.302942444444426
 30
0.0
 10
35.6553266666666673
 20
-25.8257419444444309
 30
0.0
 10
37.231819999999999
 20
-24.2632538888888831
 30
0.0
  0
LINE
  5
EA
100
AcDbEntity
100
AcDbLine
  8
0
 62
256
370
-1
 48
1.0
  6
BYLAYER
 10
37.231819999999999
 20
-24.2632538888888831
 30
0.0
 11
40.0963755555555608
 21
-21.4233927777777637
 31
0.0
  0
LINE
  5
EB
100
AcDbEntity
100
AcDbLine
  8
0
 62
256
370
-1
 48
1.0
  6
BYLAYER
 10
40.0963755555555608
 20
-21.4233927777777637
 30
0.0
 11
42.9609311111111083
 21
-24.2632538888888831
 31
0.0
  0
SPLINE
  5
EC
  8
0
 62
256
370
-1
 48
1.0
  6
BYLAYER
100
AcDbEntity
100
AcDbSpline
 70
8
 71
3
 72
8
 73
4
 74
0
 40
0.0
 40
0.0
 40
0.0
 40
0.0
 40
1.0
 40
1.0
 40
1.0
 40
1.0
 10
42.9609311111111083
 20
-24.2632538888888831
 30
0.0
 10
44.53742444444444
 20
-25.8257066666666617
 30
0.0
 10
45.8272505555555512
 20
-27.3140055555555392
 30
0.0
 10
45.8272505555555512
 20
-27.5705455555555545
 30
0.0
  0
SPLINE
  5
ED
  8
0
 62
256
370
-1
 48
1.0
  6
BYLAYER
100
AcDbEntity
100
AcDbSpline
 70
8
 71
3
 72
8
 73
4
 74
0
 40
0.0
 40
0.0
 40
0.0
 40
0.0
 40
1.0
 40
1.0
 40
1.0
 40
1.0
 10
45.8272505555555512
 20
-27.5705455555555545
 30
0.0
 10
45.8272505555555512
 20
-28.0253819444444332
 30
0.0
 10
40.5098311111111045
 20
-33.5236705555555545
 30
0.0
 10
40.0699172222222231
 20
-33.5236705555555545
 30
0.0
  0
ARC
  5
EE
100
AcDbEntity
  8
0
 62
256
370
-1
 48
1.0
  6
BYLAYER
100
AcDbCircle
 10
57.8424522496868505
 20
-11.5159350567789218
 30
0.0
 40
28.2878670649903903
100
AcDbArc
 50
222.8548489913559365
 51
231.0770946616570711
  0
LINE
  5
EF
100
AcDbEntity
100
AcDbLine
  8
0
 62
256
370
-1
 48
1.0
  6
BYLAYER
 10
37.1052080555555577
 20
-30.75574083333332
 30
0.0
 11
37.1088416666666632
 21
-30.75574083333332
 31
0.0
  0
LINE
  5
F0
100
AcDbEntity
100
AcDbLine
  8
0
 62
256
370
-1
 48
1.0
  6
BYLAYER
 10
6.0000000000000071
 20
-47.0
 30
0.0
 11
15.8470369027574023
 21
-6.1696294154952742
 31
0.0
  0
LINE
  5
F1
100
AcDbEntity
100
AcDbLine
  8
0
 62
256
370
-1
 48
1.0
  6
BYLAYER
 10
74.1944444444444287
 20
-46.9875822222222297
 30
0.0
 11
64.3474075416870335
 21
-6.157211637717479
 31
0.0
  0
LINE
  5
F2
100
AcDbEntity
100
AcDbLine
  8
0
 62
256
370
-1
 48
1.0
  6
BYLAYER
 10
-16.8055555555555642
 20
-2.012417777777765
 30
0.0
 11
7.1944444444444358
 21
-3.0124177777777632
 31
0.0
  0
LINE
  5
F3
100
AcDbEntity
100
AcDbLine
  8
0
 62
256
370
-1
 48
1.0
  6
BYLAYER
 10
-25.8055555555555642
 20
-24.0124177777777703
 30
0.0
 11
7.1944444444444358
 21
-3.0124177777777632
 31
0.0
  0
LINE
  5
F4
100
AcDbEntity
100
AcDbLine
  8
0
 62
256
370
-1
 48
1.0
  6
BYLAYER
 10
-37.2256234273186166
 20
8.6300557482185027
 30
0.0
 11
-16.8055555555555642
 21
-2.012417777777765
 31
0.0
  0
LINE
  5
F5
100
AcDbEntity
100
AcDbLine
  8
0
 62
256
370
-1
 48
1.0
  6
BYLAYER
 10
97.0
 20
-2.0
 30
0.0
 11
73.0
 21
-3.0
 31
0.0
  0
LINE
  5
F6
100
AcDbEntity
100
AcDbLine
  8
0
 62
256
370
-1
 48
1.0
  6
BYLAYER
 10
117.4200678717630524
 20
8.6424735259962659
 30
0.0
 11
97.0
 21
-2.0
 31
0.0
  0
LINE
  5
F7
100
AcDbEntity
100
AcDbLine
  8
0
 62
256
370
-1
 48
1.0
  6
BYLAYER
 10
106.0
 20
-24.0
 30
0.0
 11
73.0
 21
-3.0
 31
0.0
  0
LINE
  5
F8
100
AcDbEntity
100
AcDbLine
  8
0
 62
256
370
-1
 48
1.0
  6
BYLAYER
 10
-37.2256234273186166
 20
8.6300557482185027
 30
0.0
 11
-35.1716779374500206
 21
33.8087266335193704
 31
0.0
  0
LINE
  5
F9
100
AcDbEntity
100
AcDbLine
  8
0
 62
256
370
-1
 48
1.0
  6
BYLAYER
 10
-25.8055555555555642
 20
-24.0124177777777703
 30
0.0
 11
-18.8055555555555642
 21
-49.0124177777777703
 31
0.0
  0
LINE
  5
FA
100
AcDbEntity
100
AcDbLine
  8
0
 62
256
370
-1
 48
1.0
  6
BYLAYER
 10
117.4200678717630524
 20
8.6424735259962659
 30
0.0
 11
115.3661223818944563
 21
33.8211444112971193
 31
0.0
  0
LINE
  5
FB
100
AcDbEntity
100
AcDbLine
  8
0
 62
256
370
-1
 48
1.0
  6
BYLAYER
 10
106.0
 20
-24.0
 30
0.0
 11
99.0
 21
-49.0
 31
0.0
  0
ENDSEC
  0
SECTION
  2
OBJECTS
  0
DICTIONARY
  5
C
100
AcDbDictionary
280
0
281
1
  3
ACAD_GROUP
350
D
  3
ACAD_LAYOUT
350
1A
  3
ACAD_MLINESTYLE
350
17
  3
ACAD_PLOTSETTINGS
350
19
  3
ACAD_PLOTSTYLENAME
350
E
  3
AcDbVariableDictionary
350
FC
  3
QCAD_OBJECTS
350
FD
  0
DICTIONARY
  5
D
100
AcDbDictionary
280
0
281
1
  0
ACDBDICTIONARYWDFLT
  5
E
100
AcDbDictionary
281
1
  3
Normal
350
F
100
AcDbDictionaryWithDefault
340
F
  0
ACDBPLACEHOLDER
  5
F
  0
DICTIONARY
  5
17
100
AcDbDictionary
280
0
281
1
  3
Standard
350
18
  0
MLINESTYLE
  5
18
100
AcDbMlineStyle
  2
STANDARD
 70
0
  3

 62
256
 51
90.0
 52
90.0
 71
2
 49
0.5
 62
256
  6
BYLAYER
 49
-0.5
 62
256
  6
BYLAYER
  0
DICTIONARY
  5
19
100
AcDbDictionary
280
0
281
1
  0
DICTIONARY
  5
1A
100
AcDbDictionary
281
1
  3
Layout1
350
1E
  3
Layout2
350
26
  3
Model
350
22
  0
LAYOUT
  5
1E
100
AcDbPlotSettings
  1

  2
none_device
  4

  6

 40
0.0
 41
0.0
 42
0.0
 43
0.0
 44
0.0
 45
0.0
 46
0.0
 47
0.0
 48
0.0
 49
0.0
140
0.0
141
0.0
142
1.0
143
1.0
 70
688
 72
0
 73
0
 74
5
  7

 75
16
147
1.0
148
0.0
149
0.0
100
AcDbLayout
  1
Layout1
 70
1
 71
1
 10
0.0
 20
0.0
 11
420.0
 21
297.0
 12
0.0
 22
0.0
 32
0.0
 14
100000000000000000000.0
 24
100000000000000000000.0
 34
100000000000000000000.0
 15
-100000000000000000000.0
 25
-100000000000000000000.0
 35
-100000000000000000000.0
146
0.0
 13
0.0
 23
0.0
 33
0.0
 16
1.0
 26
0.0
 36
0.0
 17
0.0
 27
1.0
 37
0.0
 76
0
330
1B
  0
LAYOUT
  5
22
100
AcDbPlotSettings
  1

  2
none_device
  4

  6

 40
0.0
 41
0.0
 42
0.0
 43
0.0
 44
0.0
 45
0.0
 46
0.0
 47
0.0
 48
0.0
 49
0.0
140
0.0
141
0.0
142
1.0
143
1.0
 70
1712
 72
0
 73
0
 74
0
  7

 75
0
147
1.0
148
0.0
149
0.0
100
AcDbLayout
  1
Model
 70
1
 71
0
 10
0.0
 20
0.0
 11
12.0
 21
9.0
 12
0.0
 22
0.0
 32
0.0
 14
0.0
 24
0.0
 34
0.0
 15
0.0
 25
0.0
 35
0.0
146
0.0
 13
0.0
 23
0.0
 33
0.0
 16
1.0
 26
0.0
 36
0.0
 17
0.0
 27
1.0
 37
0.0
 76
0
330
1F
  0
LAYOUT
  5
26
100
AcDbPlotSettings
  1

  2
none_device
  4

  6

 40
0.0
 41
0.0
 42
0.0
 43
0.0
 44
0.0
 45
0.0
 46
0.0
 47
0.0
 48
0.0
 49
0.0
140
0.0
141
0.0
142
1.0
143
1.0
 70
688
 72
0
 73
0
 74
5
  7

 75
16
147
1.0
148
0.0
149
0.0
100
AcDbLayout
  1
Layout2
 70
1
 71
2
 10
0.0
 20
0.0
 11
12.0
 21
9.0
 12
0.0
 22
0.0
 32
0.0
 14
0.0
 24
0.0
 34
0.0
 15
0.0
 25
0.0
 35
0.0
146
0.0
 13
0.0
 23
0.0
 33
0.0
 16
1.0
 26
0.0
 36
0.0
 17
0.0
 27
1.0
 37
0.0
 76
0
330
23
  0
DICTIONARY
  5
FC
100
AcDbDictionary
281
1
  3
DIMASSOC
350
FF
  3
HIDETEXT
350
FE
  0
DICTIONARYVAR
  5
FE
100
DictionaryVariables
280
0
  1
2
  0
DICTIONARYVAR
  5
FF
100
DictionaryVariables
280
0
  1
1
  0
DICTIONARY
  5
FD
100
AcDbDictionary
281
1
  3
ColorSettings/BackgroundColor
350
100
  3
ColorSettings/ColorMode
350
101
  3
Grid/DisplayGrid00
350
102
  3
Grid/DisplayGrid01
350
103
  3
Grid/DisplayGrid02
350
104
  3
Grid/DisplayGrid03
350
105
  3
Grid/GridSpacingX00
350
106
  3
Grid/GridSpacingX01
350
107
  3
Grid/GridSpacingX02
350
108
  3
Grid/GridSpacingX03
350
109
  3
Grid/GridSpacingY00
350
10A
  3
Grid/GridSpacingY01
350
10B
  3
Grid/GridSpacingY02
350
10C
  3
Grid/GridSpacingY03
350
10D
  3
Grid/IsometricGrid00
350
10E
  3
Grid/IsometricGrid01
350
10F
  3
Grid/IsometricGrid02
350
110
  3
Grid/IsometricGrid03
350
111
  3
Grid/IsometricProjection00
350
112
  3
Grid/IsometricProjection01
350
113
  3
Grid/IsometricProjection02
350
114
  3
Grid/IsometricProjection03
350
115
  3
Grid/MetaGridSpacingX00
350
116
  3
Grid/MetaGridSpacingX01
350
117
  3
Grid/MetaGridSpacingX02
350
118
  3
Grid/MetaGridSpacingX03
350
119
  3
Grid/MetaGridSpacingY00
350
11A
  3
Grid/MetaGridSpacingY01
350
11B
  3
Grid/MetaGridSpacingY02
350
11C
  3
Grid/MetaGridSpacingY03
350
11D
  3
MultiPageSettings/Columns
350
11E
  3
MultiPageSettings/GlueMarginsBottom
350
11F
  3
MultiPageSettings/GlueMarginsLeft
350
120
  3
MultiPageSettings/GlueMarginsRight
350
121
  3
MultiPageSettings/GlueMarginsTop
350
122
  3
MultiPageSettings/PrintCropMarks
350
123
  3
MultiPageSettings/Rows
350
124
  3
PageSettings/OffsetX
350
125
  3
PageSettings/OffsetY
350
126
  3
PageSettings/PageOrientation
350
127
  3
PageSettings/PaperHeight
350
128
  3
PageSettings/PaperWidth
350
129
  3
PageSettings/Scale
350
12A
  3
PageSettings/ShowPaperBorders
350
12B
  3
QCADVersion
350
12C
  3
UnitSettings/PaperUnit
350
12D
  0
XRECORD
  5
100
330
FD
100
AcDbXrecord
280
1
1000
White
  0
XRECORD
  5
101
330
FD
100
AcDbXrecord
280
1
1000
FullColor
  0
XRECORD
  5
102
330
FD
100
AcDbXrecord
280
1
290
1
  0
XRECORD
  5
103
330
FD
100
AcDbXrecord
280
1
290
1
  0
XRECORD
  5
104
330
FD
100
AcDbXrecord
280
1
290
1
  0
XRECORD
  5
105
330
FD
100
AcDbXrecord
280
1
290
1
  0
XRECORD
  5
106
330
FD
100
AcDbXrecord
280
1
1000
auto
  0
XRECORD
  5
107
330
FD
100
AcDbXrecord
280
1
1000
auto
  0
XRECORD
  5
108
330
FD
100
AcDbXrecord
280
1
1000
auto
  0
XRECORD
  5
109
330
FD
100
AcDbXrecord
280
1
1000
auto
  0
XRECORD
  5
10A
330
FD
100
AcDbXrecord
280
1
1000
auto
  0
XRECORD
  5
10B
330
FD
100
AcDbXrecord
280
1
1000
auto
  0
XRECORD
  5
10C
330
FD
100
AcDbXrecord
280
1
1000
auto
  0
XRECORD
  5
10D
330
FD
100
AcDbXrecord
280
1
1000
auto
  0
XRECORD
  5
10E
330
FD
100
AcDbXrecord
280
1
290
0
  0
XRECORD
  5
10F
330
FD
100
AcDbXrecord
280
1
290
0
  0
XRECORD
  5
110
330
FD
100
AcDbXrecord
280
1
290
0
  0
XRECORD
  5
111
330
FD
100
AcDbXrecord
280
1
290
0
  0
XRECORD
  5
112
330
FD
100
AcDbXrecord
280
1
 90
0
  0
XRECORD
  5
113
330
FD
100
AcDbXrecord
280
1
 90
0
  0
XRECORD
  5
114
330
FD
100
AcDbXrecord
280
1
 90
0
  0
XRECORD
  5
115
330
FD
100
AcDbXrecord
280
1
 90
0
  0
XRECORD
  5
116
330
FD
100
AcDbXrecord
280
1
1000
auto
  0
XRECORD
  5
117
330
FD
100
AcDbXrecord
280
1
1000
auto
  0
XRECORD
  5
118
330
FD
100
AcDbXrecord
280
1
1000
auto
  0
XRECORD
  5
119
330
FD
100
AcDbXrecord
280
1
1000
auto
  0
XRECORD
  5
11A
330
FD
100
AcDbXrecord
280
1
1000
auto
  0
XRECORD
  5
11B
330
FD
100
AcDbXrecord
280
1
1000
auto
  0
XRECORD
  5
11C
330
FD
100
AcDbXrecord
280
1
1000
auto
  0
XRECORD
  5
11D
330
FD
100
AcDbXrecord
280
1
1000
auto
  0
XRECORD
  5
11E
330
FD
100
AcDbXrecord
280
1
 90
1
  0
XRECORD
  5
11F
330
FD
100
AcDbXrecord
280
1
 40
10.0
  0
XRECORD
  5
120
330
FD
100
AcDbXrecord
280
1
 40
10.0
  0
XRECORD
  5
121
330
FD
100
AcDbXrecord
280
1
 40
10.0
  0
XRECORD
  5
122
330
FD
100
AcDbXrecord
280
1
 40
10.0
  0
XRECORD
  5
123
330
FD
100
AcDbXrecord
280
1
290
0
  0
XRECORD
  5
124
330
FD
100
AcDbXrecord
280
1
 90
1
  0
XRECORD
  5
125
330
FD
100
AcDbXrecord
280
1
 40
0.0
  0
XRECORD
  5
126
330
FD
100
AcDbXrecord
280
1
 40
0.0
  0
XRECORD
  5
127
330
FD
100
AcDbXrecord
280
1
1000
Portrait
  0
XRECORD
  5
128
330
FD
100
AcDbXrecord
280
1
 40
297.0
  0
XRECORD
  5
129
330
FD
100
AcDbXrecord
280
1
 40
210.0
  0
XRECORD
  5
12A
330
FD
100
AcDbXrecord
280
1
1000
1:1
  0
XRECORD
  5
12B
330
FD
100
AcDbXrecord
280
1
290
1
  0
XRECORD
  5
12C
330
FD
100
AcDbXrecord
280
1
1000
3.12.4
  0
XRECORD
  5
12D
330
FD
100
AcDbXrecord
280
1
 90
4
  0
ENDSEC
  0
EOF
